<?xml version="1.0" encoding="UTF-8" standalone="no"?>
<!DOCTYPE svg PUBLIC "-//W3C//DTD SVG 1.1//EN" "http://www.w3.org/Graphics/SVG/1.1/DTD/svg11.dtd">
<svg width="100%" height="100%" viewBox="0 0 232 232" version="1.1" xmlns="http://www.w3.org/2000/svg" xmlns:xlink="http://www.w3.org/1999/xlink" xml:space="preserve" xmlns:serif="http://www.serif.com/" style="fill-rule:evenodd;clip-rule:evenodd;stroke-linejoin:round;stroke-miterlimit:2;">
    <g transform="matrix(1,0,0,1,-40.4298,-719.86)">
        <g transform="matrix(0.392852,0,0,2.11158,-451.278,575.04)">
            <g opacity="0.1">
                <g transform="matrix(1.23866,0,0,0.230449,-7567.65,-304.744)">
                    <circle cx="7557.5" cy="2057.5" r="37.5" style="fill:white;"/>
                </g>
                <g transform="matrix(1.23866,0,0,0.230449,-7567.65,-327.789)">
                    <circle cx="7557.5" cy="2057.5" r="37.5" style="fill:white;"/>
                </g>
                <g transform="matrix(1.23866,0,0,0.230449,-7567.65,-350.834)">
                    <circle cx="7557.5" cy="2057.5" r="37.5" style="fill:white;"/>
                </g>
                <g transform="matrix(1.23866,0,0,0.230449,-7567.65,-373.879)">
                    <circle cx="7557.5" cy="2057.5" r="37.5" style="fill:white;"/>
                </g>
                <g transform="matrix(1.23866,0,0,0.230449,-7567.65,-396.924)">
                    <circle cx="7557.5" cy="2057.5" r="37.5" style="fill:white;"/>
                </g>
                <g transform="matrix(1.23866,0,0,0.230449,-7691.51,-304.744)">
                    <circle cx="7557.5" cy="2057.5" r="37.5" style="fill:white;"/>
                </g>
                <g transform="matrix(1.23866,0,0,0.230449,-7691.51,-327.789)">
                    <circle cx="7557.5" cy="2057.5" r="37.5" style="fill:white;"/>
                </g>
                <g transform="matrix(1.23866,0,0,0.230449,-7691.51,-350.834)">
                    <circle cx="7557.5" cy="2057.5" r="37.5" style="fill:white;"/>
                </g>
                <g transform="matrix(1.23866,0,0,0.230449,-7691.51,-373.879)">
                    <circle cx="7557.5" cy="2057.5" r="37.5" style="fill:white;"/>
                </g>
                <g transform="matrix(1.23866,0,0,0.230449,-7691.51,-396.924)">
                    <circle cx="7557.5" cy="2057.5" r="37.5" style="fill:white;"/>
                </g>
                <g transform="matrix(1.23866,0,0,0.230449,-7815.38,-304.744)">
                    <circle cx="7557.5" cy="2057.5" r="37.5" style="fill:white;"/>
                </g>
                <g transform="matrix(1.23866,0,0,0.230449,-7815.38,-327.789)">
                    <circle cx="7557.5" cy="2057.5" r="37.5" style="fill:white;"/>
                </g>
                <g transform="matrix(1.23866,0,0,0.230449,-7815.38,-350.834)">
                    <circle cx="7557.5" cy="2057.5" r="37.5" style="fill:white;"/>
                </g>
                <g transform="matrix(1.23866,0,0,0.230449,-7815.38,-373.879)">
                    <circle cx="7557.5" cy="2057.5" r="37.5" style="fill:white;"/>
                </g>
                <g transform="matrix(1.23866,0,0,0.230449,-7815.38,-396.924)">
                    <circle cx="7557.5" cy="2057.5" r="37.5" style="fill:white;"/>
                </g>
                <g transform="matrix(1.23866,0,0,0.230449,-7939.25,-304.744)">
                    <circle cx="7557.5" cy="2057.5" r="37.5" style="fill:white;"/>
                </g>
                <g transform="matrix(1.23866,0,0,0.230449,-7939.25,-327.789)">
                    <circle cx="7557.5" cy="2057.5" r="37.5" style="fill:white;"/>
                </g>
                <g transform="matrix(1.23866,0,0,0.230449,-7939.25,-350.834)">
                    <circle cx="7557.5" cy="2057.5" r="37.5" style="fill:white;"/>
                </g>
                <g transform="matrix(1.23866,0,0,0.230449,-7939.25,-373.879)">
                    <circle cx="7557.5" cy="2057.5" r="37.5" style="fill:white;"/>
                </g>
                <g transform="matrix(1.23866,0,0,0.230449,-7939.25,-396.924)">
                    <circle cx="7557.5" cy="2057.5" r="37.5" style="fill:white;"/>
                </g>
                <g transform="matrix(1.23866,0,0,0.230449,-8063.11,-304.744)">
                    <circle cx="7557.5" cy="2057.5" r="37.5" style="fill:white;"/>
                </g>
                <g transform="matrix(1.23866,0,0,0.230449,-8063.11,-327.789)">
                    <circle cx="7557.5" cy="2057.5" r="37.5" style="fill:white;"/>
                </g>
                <g transform="matrix(1.23866,0,0,0.230449,-8063.11,-350.834)">
                    <circle cx="7557.5" cy="2057.5" r="37.5" style="fill:white;"/>
                </g>
                <g transform="matrix(1.23866,0,0,0.230449,-8063.11,-373.879)">
                    <circle cx="7557.5" cy="2057.5" r="37.5" style="fill:white;"/>
                </g>
                <g transform="matrix(1.23866,0,0,0.230449,-8063.11,-396.924)">
                    <circle cx="7557.5" cy="2057.5" r="37.5" style="fill:white;"/>
                </g>
            </g>
        </g>
    </g>
</svg>
