<?xml version="1.0" encoding="UTF-8" standalone="no"?>
<!DOCTYPE svg PUBLIC "-//W3C//DTD SVG 1.1//EN" "http://www.w3.org/Graphics/SVG/1.1/DTD/svg11.dtd">
<svg width="100%" height="100%" viewBox="0 0 320 320" version="1.1" xmlns="http://www.w3.org/2000/svg" xmlns:xlink="http://www.w3.org/1999/xlink" xml:space="preserve" xmlns:serif="http://www.serif.com/" style="fill-rule:evenodd;clip-rule:evenodd;stroke-linejoin:round;stroke-miterlimit:2;">
    <g transform="matrix(1,0,0,1,-1648.75,-719.86)">
        <g transform="matrix(0.672891,0,0,0.672891,-3141.87,-1446.87)">
            <g opacity="0.1">
                <g transform="matrix(0.486611,0,0,0.486611,3898.1,2675.02)">
                    <circle cx="7557.5" cy="2057.5" r="37.5" style="fill:white;"/>
                </g>
                <g transform="matrix(0.486611,0,0,0.486611,3898.1,2431.71)">
                    <circle cx="7557.5" cy="2057.5" r="37.5" style="fill:white;"/>
                </g>
                <g transform="matrix(0.486611,0,0,0.486611,3898.1,2626.36)">
                    <circle cx="7557.5" cy="2057.5" r="37.5" style="fill:white;"/>
                </g>
                <g transform="matrix(0.486611,0,0,0.486611,3898.1,2383.05)">
                    <circle cx="7557.5" cy="2057.5" r="37.5" style="fill:white;"/>
                </g>
                <g transform="matrix(0.486611,0,0,0.486611,3898.1,2577.7)">
                    <circle cx="7557.5" cy="2057.5" r="37.5" style="fill:white;"/>
                </g>
                <g transform="matrix(0.486611,0,0,0.486611,3898.1,2334.39)">
                    <circle cx="7557.5" cy="2057.5" r="37.5" style="fill:white;"/>
                </g>
                <g transform="matrix(0.486611,0,0,0.486611,3898.1,2529.04)">
                    <circle cx="7557.5" cy="2057.5" r="37.5" style="fill:white;"/>
                </g>
                <g transform="matrix(0.486611,0,0,0.486611,3898.1,2285.73)">
                    <circle cx="7557.5" cy="2057.5" r="37.5" style="fill:white;"/>
                </g>
                <g transform="matrix(0.486611,0,0,0.486611,3898.1,2480.37)">
                    <circle cx="7557.5" cy="2057.5" r="37.5" style="fill:white;"/>
                </g>
                <g transform="matrix(0.486611,0,0,0.486611,3898.1,2237.07)">
                    <circle cx="7557.5" cy="2057.5" r="37.5" style="fill:white;"/>
                </g>
                <g transform="matrix(0.486611,0,0,0.486611,3849.44,2675.02)">
                    <circle cx="7557.5" cy="2057.5" r="37.5" style="fill:white;"/>
                </g>
                <g transform="matrix(0.486611,0,0,0.486611,3849.44,2431.71)">
                    <circle cx="7557.5" cy="2057.5" r="37.5" style="fill:white;"/>
                </g>
                <g transform="matrix(0.486611,0,0,0.486611,3654.79,2675.02)">
                    <circle cx="7557.5" cy="2057.5" r="37.5" style="fill:white;"/>
                </g>
                <g transform="matrix(0.486611,0,0,0.486611,3654.79,2431.71)">
                    <circle cx="7557.5" cy="2057.5" r="37.5" style="fill:white;"/>
                </g>
                <g transform="matrix(0.486611,0,0,0.486611,3849.44,2626.36)">
                    <circle cx="7557.5" cy="2057.5" r="37.5" style="fill:white;"/>
                </g>
                <g transform="matrix(0.486611,0,0,0.486611,3849.44,2383.05)">
                    <circle cx="7557.5" cy="2057.5" r="37.5" style="fill:white;"/>
                </g>
                <g transform="matrix(0.486611,0,0,0.486611,3654.79,2626.36)">
                    <circle cx="7557.5" cy="2057.5" r="37.5" style="fill:white;"/>
                </g>
                <g transform="matrix(0.486611,0,0,0.486611,3654.79,2383.05)">
                    <circle cx="7557.5" cy="2057.5" r="37.5" style="fill:white;"/>
                </g>
                <g transform="matrix(0.486611,0,0,0.486611,3849.44,2577.7)">
                    <circle cx="7557.5" cy="2057.5" r="37.5" style="fill:white;"/>
                </g>
                <g transform="matrix(0.486611,0,0,0.486611,3849.44,2334.39)">
                    <circle cx="7557.5" cy="2057.5" r="37.5" style="fill:white;"/>
                </g>
                <g transform="matrix(0.486611,0,0,0.486611,3654.79,2577.7)">
                    <circle cx="7557.5" cy="2057.5" r="37.5" style="fill:white;"/>
                </g>
                <g transform="matrix(0.486611,0,0,0.486611,3654.79,2334.39)">
                    <circle cx="7557.5" cy="2057.5" r="37.5" style="fill:white;"/>
                </g>
                <g transform="matrix(0.486611,0,0,0.486611,3849.44,2529.04)">
                    <circle cx="7557.5" cy="2057.5" r="37.5" style="fill:white;"/>
                </g>
                <g transform="matrix(0.486611,0,0,0.486611,3849.44,2285.73)">
                    <circle cx="7557.5" cy="2057.5" r="37.5" style="fill:white;"/>
                </g>
                <g transform="matrix(0.486611,0,0,0.486611,3654.79,2529.04)">
                    <circle cx="7557.5" cy="2057.5" r="37.5" style="fill:white;"/>
                </g>
                <g transform="matrix(0.486611,0,0,0.486611,3654.79,2285.73)">
                    <circle cx="7557.5" cy="2057.5" r="37.5" style="fill:white;"/>
                </g>
                <g transform="matrix(0.486611,0,0,0.486611,3849.44,2480.37)">
                    <circle cx="7557.5" cy="2057.5" r="37.5" style="fill:white;"/>
                </g>
                <g transform="matrix(0.486611,0,0,0.486611,3849.44,2237.07)">
                    <circle cx="7557.5" cy="2057.5" r="37.5" style="fill:white;"/>
                </g>
                <g transform="matrix(0.486611,0,0,0.486611,3654.79,2480.37)">
                    <circle cx="7557.5" cy="2057.5" r="37.5" style="fill:white;"/>
                </g>
                <g transform="matrix(0.486611,0,0,0.486611,3654.79,2237.07)">
                    <circle cx="7557.5" cy="2057.5" r="37.5" style="fill:white;"/>
                </g>
                <g transform="matrix(0.486611,0,0,0.486611,3800.77,2675.02)">
                    <circle cx="7557.5" cy="2057.5" r="37.5" style="fill:white;"/>
                </g>
                <g transform="matrix(0.486611,0,0,0.486611,3800.77,2431.71)">
                    <circle cx="7557.5" cy="2057.5" r="37.5" style="fill:white;"/>
                </g>
                <g transform="matrix(0.486611,0,0,0.486611,3606.13,2675.02)">
                    <circle cx="7557.5" cy="2057.5" r="37.5" style="fill:white;"/>
                </g>
                <g transform="matrix(0.486611,0,0,0.486611,3606.13,2431.71)">
                    <circle cx="7557.5" cy="2057.5" r="37.5" style="fill:white;"/>
                </g>
                <g transform="matrix(0.486611,0,0,0.486611,3800.77,2626.36)">
                    <circle cx="7557.5" cy="2057.5" r="37.5" style="fill:white;"/>
                </g>
                <g transform="matrix(0.486611,0,0,0.486611,3800.77,2383.05)">
                    <circle cx="7557.5" cy="2057.5" r="37.5" style="fill:white;"/>
                </g>
                <g transform="matrix(0.486611,0,0,0.486611,3606.13,2626.36)">
                    <circle cx="7557.5" cy="2057.5" r="37.5" style="fill:white;"/>
                </g>
                <g transform="matrix(0.486611,0,0,0.486611,3606.13,2383.05)">
                    <circle cx="7557.5" cy="2057.5" r="37.5" style="fill:white;"/>
                </g>
                <g transform="matrix(0.486611,0,0,0.486611,3800.77,2577.7)">
                    <circle cx="7557.5" cy="2057.5" r="37.5" style="fill:white;"/>
                </g>
                <g transform="matrix(0.486611,0,0,0.486611,3800.77,2334.39)">
                    <circle cx="7557.5" cy="2057.5" r="37.5" style="fill:white;"/>
                </g>
                <g transform="matrix(0.486611,0,0,0.486611,3606.13,2577.7)">
                    <circle cx="7557.5" cy="2057.5" r="37.5" style="fill:white;"/>
                </g>
                <g transform="matrix(0.486611,0,0,0.486611,3606.13,2334.39)">
                    <circle cx="7557.5" cy="2057.5" r="37.5" style="fill:white;"/>
                </g>
                <g transform="matrix(0.486611,0,0,0.486611,3800.77,2529.04)">
                    <circle cx="7557.5" cy="2057.5" r="37.5" style="fill:white;"/>
                </g>
                <g transform="matrix(0.486611,0,0,0.486611,3800.77,2285.73)">
                    <circle cx="7557.5" cy="2057.5" r="37.5" style="fill:white;"/>
                </g>
                <g transform="matrix(0.486611,0,0,0.486611,3606.13,2529.04)">
                    <circle cx="7557.5" cy="2057.5" r="37.5" style="fill:white;"/>
                </g>
                <g transform="matrix(0.486611,0,0,0.486611,3606.13,2285.73)">
                    <circle cx="7557.5" cy="2057.5" r="37.5" style="fill:white;"/>
                </g>
                <g transform="matrix(0.486611,0,0,0.486611,3800.77,2480.37)">
                    <circle cx="7557.5" cy="2057.5" r="37.5" style="fill:white;"/>
                </g>
                <g transform="matrix(0.486611,0,0,0.486611,3800.77,2237.07)">
                    <circle cx="7557.5" cy="2057.5" r="37.5" style="fill:white;"/>
                </g>
                <g transform="matrix(0.486611,0,0,0.486611,3606.13,2480.37)">
                    <circle cx="7557.5" cy="2057.5" r="37.5" style="fill:white;"/>
                </g>
                <g transform="matrix(0.486611,0,0,0.486611,3606.13,2237.07)">
                    <circle cx="7557.5" cy="2057.5" r="37.5" style="fill:white;"/>
                </g>
                <g transform="matrix(0.486611,0,0,0.486611,3752.11,2675.02)">
                    <circle cx="7557.5" cy="2057.5" r="37.5" style="fill:white;"/>
                </g>
                <g transform="matrix(0.486611,0,0,0.486611,3752.11,2431.71)">
                    <circle cx="7557.5" cy="2057.5" r="37.5" style="fill:white;"/>
                </g>
                <g transform="matrix(0.486611,0,0,0.486611,3557.47,2675.02)">
                    <circle cx="7557.5" cy="2057.5" r="37.5" style="fill:white;"/>
                </g>
                <g transform="matrix(0.486611,0,0,0.486611,3557.47,2431.71)">
                    <circle cx="7557.5" cy="2057.5" r="37.5" style="fill:white;"/>
                </g>
                <g transform="matrix(0.486611,0,0,0.486611,3752.11,2626.36)">
                    <circle cx="7557.5" cy="2057.5" r="37.5" style="fill:white;"/>
                </g>
                <g transform="matrix(0.486611,0,0,0.486611,3752.11,2383.05)">
                    <circle cx="7557.5" cy="2057.5" r="37.5" style="fill:white;"/>
                </g>
                <g transform="matrix(0.486611,0,0,0.486611,3557.47,2626.36)">
                    <circle cx="7557.5" cy="2057.5" r="37.5" style="fill:white;"/>
                </g>
                <g transform="matrix(0.486611,0,0,0.486611,3557.47,2383.05)">
                    <circle cx="7557.5" cy="2057.5" r="37.5" style="fill:white;"/>
                </g>
                <g transform="matrix(0.486611,0,0,0.486611,3752.11,2577.7)">
                    <circle cx="7557.5" cy="2057.5" r="37.5" style="fill:white;"/>
                </g>
                <g transform="matrix(0.486611,0,0,0.486611,3752.11,2334.39)">
                    <circle cx="7557.5" cy="2057.5" r="37.5" style="fill:white;"/>
                </g>
                <g transform="matrix(0.486611,0,0,0.486611,3557.47,2577.7)">
                    <circle cx="7557.5" cy="2057.5" r="37.5" style="fill:white;"/>
                </g>
                <g transform="matrix(0.486611,0,0,0.486611,3557.47,2334.39)">
                    <circle cx="7557.5" cy="2057.5" r="37.5" style="fill:white;"/>
                </g>
                <g transform="matrix(0.486611,0,0,0.486611,3752.11,2529.04)">
                    <circle cx="7557.5" cy="2057.5" r="37.5" style="fill:white;"/>
                </g>
                <g transform="matrix(0.486611,0,0,0.486611,3752.11,2285.73)">
                    <circle cx="7557.5" cy="2057.5" r="37.5" style="fill:white;"/>
                </g>
                <g transform="matrix(0.486611,0,0,0.486611,3557.47,2529.04)">
                    <circle cx="7557.5" cy="2057.5" r="37.5" style="fill:white;"/>
                </g>
                <g transform="matrix(0.486611,0,0,0.486611,3557.47,2285.73)">
                    <circle cx="7557.5" cy="2057.5" r="37.5" style="fill:white;"/>
                </g>
                <g transform="matrix(0.486611,0,0,0.486611,3752.11,2480.37)">
                    <circle cx="7557.5" cy="2057.5" r="37.5" style="fill:white;"/>
                </g>
                <g transform="matrix(0.486611,0,0,0.486611,3752.11,2237.07)">
                    <circle cx="7557.5" cy="2057.5" r="37.5" style="fill:white;"/>
                </g>
                <g transform="matrix(0.486611,0,0,0.486611,3557.47,2480.37)">
                    <circle cx="7557.5" cy="2057.5" r="37.5" style="fill:white;"/>
                </g>
                <g transform="matrix(0.486611,0,0,0.486611,3557.47,2237.07)">
                    <circle cx="7557.5" cy="2057.5" r="37.5" style="fill:white;"/>
                </g>
                <g transform="matrix(0.486611,0,0,0.486611,3703.45,2675.02)">
                    <circle cx="7557.5" cy="2057.5" r="37.5" style="fill:white;"/>
                </g>
                <g transform="matrix(0.486611,0,0,0.486611,3703.45,2431.71)">
                    <circle cx="7557.5" cy="2057.5" r="37.5" style="fill:white;"/>
                </g>
                <g transform="matrix(0.486611,0,0,0.486611,3508.81,2675.02)">
                    <circle cx="7557.5" cy="2057.5" r="37.5" style="fill:white;"/>
                </g>
                <g transform="matrix(0.486611,0,0,0.486611,3460.15,2675.02)">
                    <circle cx="7557.5" cy="2057.5" r="37.5" style="fill:white;"/>
                </g>
                <g transform="matrix(0.486611,0,0,0.486611,3508.81,2431.71)">
                    <circle cx="7557.5" cy="2057.5" r="37.5" style="fill:white;"/>
                </g>
                <g transform="matrix(0.486611,0,0,0.486611,3460.15,2431.71)">
                    <circle cx="7557.5" cy="2057.5" r="37.5" style="fill:white;"/>
                </g>
                <g transform="matrix(0.486611,0,0,0.486611,3703.45,2626.36)">
                    <circle cx="7557.5" cy="2057.5" r="37.5" style="fill:white;"/>
                </g>
                <g transform="matrix(0.486611,0,0,0.486611,3703.45,2383.05)">
                    <circle cx="7557.5" cy="2057.5" r="37.5" style="fill:white;"/>
                </g>
                <g transform="matrix(0.486611,0,0,0.486611,3508.81,2626.36)">
                    <circle cx="7557.5" cy="2057.5" r="37.5" style="fill:white;"/>
                </g>
                <g transform="matrix(0.486611,0,0,0.486611,3460.15,2626.36)">
                    <circle cx="7557.5" cy="2057.5" r="37.5" style="fill:white;"/>
                </g>
                <g transform="matrix(0.486611,0,0,0.486611,3508.81,2383.05)">
                    <circle cx="7557.5" cy="2057.5" r="37.5" style="fill:white;"/>
                </g>
                <g transform="matrix(0.486611,0,0,0.486611,3460.15,2383.05)">
                    <circle cx="7557.5" cy="2057.5" r="37.5" style="fill:white;"/>
                </g>
                <g transform="matrix(0.486611,0,0,0.486611,3703.45,2577.7)">
                    <circle cx="7557.5" cy="2057.5" r="37.5" style="fill:white;"/>
                </g>
                <g transform="matrix(0.486611,0,0,0.486611,3703.45,2334.39)">
                    <circle cx="7557.5" cy="2057.5" r="37.5" style="fill:white;"/>
                </g>
                <g transform="matrix(0.486611,0,0,0.486611,3508.81,2577.7)">
                    <circle cx="7557.5" cy="2057.5" r="37.5" style="fill:white;"/>
                </g>
                <g transform="matrix(0.486611,0,0,0.486611,3460.15,2577.7)">
                    <circle cx="7557.5" cy="2057.5" r="37.5" style="fill:white;"/>
                </g>
                <g transform="matrix(0.486611,0,0,0.486611,3508.81,2334.39)">
                    <circle cx="7557.5" cy="2057.5" r="37.5" style="fill:white;"/>
                </g>
                <g transform="matrix(0.486611,0,0,0.486611,3460.15,2334.39)">
                    <circle cx="7557.5" cy="2057.5" r="37.5" style="fill:white;"/>
                </g>
                <g transform="matrix(0.486611,0,0,0.486611,3703.45,2529.04)">
                    <circle cx="7557.5" cy="2057.5" r="37.5" style="fill:white;"/>
                </g>
                <g transform="matrix(0.486611,0,0,0.486611,3703.45,2285.73)">
                    <circle cx="7557.5" cy="2057.5" r="37.5" style="fill:white;"/>
                </g>
                <g transform="matrix(0.486611,0,0,0.486611,3508.81,2529.04)">
                    <circle cx="7557.5" cy="2057.5" r="37.5" style="fill:white;"/>
                </g>
                <g transform="matrix(0.486611,0,0,0.486611,3460.15,2529.04)">
                    <circle cx="7557.5" cy="2057.5" r="37.5" style="fill:white;"/>
                </g>
                <g transform="matrix(0.486611,0,0,0.486611,3508.81,2285.73)">
                    <circle cx="7557.5" cy="2057.5" r="37.5" style="fill:white;"/>
                </g>
                <g transform="matrix(0.486611,0,0,0.486611,3460.15,2285.73)">
                    <circle cx="7557.5" cy="2057.5" r="37.5" style="fill:white;"/>
                </g>
                <g transform="matrix(0.486611,0,0,0.486611,3703.45,2480.37)">
                    <circle cx="7557.5" cy="2057.5" r="37.5" style="fill:white;"/>
                </g>
                <g transform="matrix(0.486611,0,0,0.486611,3703.45,2237.07)">
                    <circle cx="7557.5" cy="2057.5" r="37.5" style="fill:white;"/>
                </g>
                <g transform="matrix(0.486611,0,0,0.486611,3508.81,2480.37)">
                    <circle cx="7557.5" cy="2057.5" r="37.5" style="fill:white;"/>
                </g>
                <g transform="matrix(0.486611,0,0,0.486611,3460.15,2480.37)">
                    <circle cx="7557.5" cy="2057.5" r="37.5" style="fill:white;"/>
                </g>
                <g transform="matrix(0.486611,0,0,0.486611,3508.81,2237.07)">
                    <circle cx="7557.5" cy="2057.5" r="37.5" style="fill:white;"/>
                </g>
                <g transform="matrix(0.486611,0,0,0.486611,3460.15,2237.07)">
                    <circle cx="7557.5" cy="2057.5" r="37.5" style="fill:white;"/>
                </g>
            </g>
        </g>
    </g>
</svg>
