<?xml version="1.0" encoding="UTF-8" standalone="no"?>
<!-- Created with Inkscape (http://www.inkscape.org/) -->

<svg
   xmlns:dc="http://purl.org/dc/elements/1.1/"
   xmlns:cc="http://creativecommons.org/ns#"
   xmlns:rdf="http://www.w3.org/1999/02/22-rdf-syntax-ns#"
   xmlns:svg="http://www.w3.org/2000/svg"
   xmlns="http://www.w3.org/2000/svg"
   xmlns:sodipodi="http://sodipodi.sourceforge.net/DTD/sodipodi-0.dtd"
   xmlns:inkscape="http://www.inkscape.org/namespaces/inkscape"
   width="10.169261mm"
   height="15.340393mm"
   viewBox="0 0 10.169261 15.340393"
   version="1.1"
   id="svg119"
   inkscape:version="0.92.4 (5da689c313, 2019-01-14)"
   sodipodi:docname="logo-simple-blue.svg">
  <defs
     id="defs113" />
  <sodipodi:namedview
     id="base"
     pagecolor="#ffffff"
     bordercolor="#666666"
     borderopacity="1.0"
     inkscape:pageopacity="0.0"
     inkscape:pageshadow="2"
     inkscape:zoom="7.9195959"
     inkscape:cx="27.157389"
     inkscape:cy="15.582357"
     inkscape:document-units="mm"
     inkscape:current-layer="layer1"
     showgrid="false"
     fit-margin-top="0"
     fit-margin-left="0"
     fit-margin-right="0"
     fit-margin-bottom="0"
     inkscape:window-width="1920"
     inkscape:window-height="1001"
     inkscape:window-x="-9"
     inkscape:window-y="-9"
     inkscape:window-maximized="1" />
  <metadata
     id="metadata116">
    <rdf:RDF>
      <cc:Work
         rdf:about="">
        <dc:format>image/svg+xml</dc:format>
        <dc:type
           rdf:resource="http://purl.org/dc/dcmitype/StillImage" />
        <dc:title></dc:title>
      </cc:Work>
    </rdf:RDF>
  </metadata>
  <g
     inkscape:label="Vrstva 1"
     inkscape:groupmode="layer"
     id="layer1"
     transform="translate(33.810824,-141.16355)">
    <path
       inkscape:connector-curvature="0"
       d="m -26.137624,141.66199 c -0.0048,-0.0717 0.03519,-0.14525 0.120914,-0.17568 l 0.995098,-0.31485 c 0.01667,-0.005 0.02328,-0.01 0.06694,-0.007 0.02249,0.003 0.04418,0.009 0.06482,0.0188 0.386556,0.20082 0.780256,0.38841 1.159669,0.60246 0.01587,0.009 0.03043,0.0201 0.0426,0.0333 0.02778,0.0296 0.04286,0.0714 0.04392,0.1143 0.0013,0.006 0.0021,0.0116 0.0021,0.0175 l -1.053291,13.01565 c -0.0011,0.007 -0.0029,0.014 -0.0048,0.0206 -0.005,0.0532 -0.03889,0.10292 -0.115359,0.13017 l -1.007269,0.31856 c -0.04392,0.0124 -0.09049,0.008 -0.132027,-0.0114 l -1.143531,-0.59372 c -0.03889,-0.022 -0.04763,-0.0336 -0.06271,-0.0553 -0.02461,-0.0357 -0.03254,-0.0783 -0.02672,-0.11907 -7.94e-4,-0.008 -0.0013,-0.0175 -0.0013,-0.0267 l 0.97922,-12.09675 -0.65114,0.20585 -1.043781,12.89447 c 0.0066,0.0635 -0.02381,0.12726 -0.1143,0.15954 l -1.007534,0.31882 c -0.04366,0.0122 -0.09022,0.008 -0.131762,-0.0116 l -1.1557,-0.60007 c -0.0013,-5.3e-4 -0.0024,-10e-4 -0.0037,-0.002 -0.0056,-0.003 -0.01138,-0.006 -0.01693,-0.0103 -0.03069,-0.0204 -0.04128,-0.0373 -0.05424,-0.0638 -0.01349,-0.027 -0.01905,-0.0561 -0.01773,-0.0849 0,-0.002 0,-0.004 0,-0.006 l 0.998268,-12.26906 -0.811213,-0.42121 -1.083204,13.38474 c -0.0011,0.007 -0.0026,0.0132 -0.0045,0.0196 -0.0045,0.0535 -0.03863,0.10398 -0.115623,0.13149 l -1.007533,0.31856 c -0.04366,0.0124 -0.09022,0.008 -0.131763,-0.0114 l -1.155698,-0.60007 c -0.005,-0.003 -0.0098,-0.006 -0.01402,-0.008 -0.009,-0.005 -0.01746,-0.0109 -0.0254,-0.0177 -0.04286,-0.0347 -0.04524,-0.0653 -0.0508,-0.0955 -0.0037,-0.0198 -0.0042,-0.0397 -0.0013,-0.0587 l 1.051189,-12.9902 c 5.29e-4,-0.0677 0.04075,-0.13441 0.121444,-0.16299 l 1.007269,-0.31882 c 0.01667,-0.005 0.02328,-0.01 0.06694,-0.007 0.02249,0.003 0.04419,0.009 0.06482,0.0188 0.307446,0.1598 0.619389,0.31115 0.925247,0.47413 l 0.02858,-0.35587 c 0.0013,-0.0699 0.03757,-0.12832 0.119592,-0.15795 l 0.995891,-0.32464 c 0.03995,-0.0117 0.0217,-0.0103 0.06773,-0.008 0.02275,0.003 0.04472,0.009 0.06535,0.0188 0.306123,0.15902 0.616744,0.30957 0.921015,0.47176 l 0.02196,-0.33867 c -0.0066,-0.073 0.03334,-0.14843 0.120385,-0.17939 l 1.00727,-0.31856 c 0.03995,-0.0114 0.0217,-0.0101 0.0672,-0.007 0.02249,0.003 0.04418,0.009 0.06482,0.0188 0.307446,0.15955 0.619389,0.31089 0.924983,0.47387 l 0.02752,-0.3384 c 5.29e-4,-0.003 0.0013,-0.007 0.0021,-0.0101 z m -5.12789,1.78356 -1.023408,12.64338 0.651139,-0.20558 1.023409,-12.64365 z m -2.190485,12.18512 0.822589,0.4273 1.023144,-12.64152 -0.822589,-0.42731 z m 4.566708,0.0743 0.648758,-0.20479 1.035315,-12.79075 -0.817033,-0.42439 z m -0.173831,-12.61322 -0.989013,12.15364 0.818621,0.42518 0.825765,-12.78599 z m 4.405048,-0.70696 -1.023409,12.64337 0.65114,-0.20558 1.023408,-12.64391 z m -2.179109,12.19094 0.811213,0.42148 1.023144,-12.64232 -0.810684,-0.42836 z m -5.296958,-11.82106 0.721783,0.37465 0.540809,-0.17092 -0.721519,-0.37491 c -0.180446,0.0572 -0.360627,0.11403 -0.541073,0.17118 z m 2.209535,-0.35004 0.71464,0.37121 0.541073,-0.17119 -0.72099,-0.37438 c -0.178329,0.0582 -0.356393,0.11642 -0.534723,0.17436 z m 2.195513,-0.35719 0.721519,0.37492 0.541073,-0.17119 -0.721519,-0.37465 c -0.180446,0.0569 -0.360627,0.11404 -0.541073,0.17092 z m 2.210858,-0.35613 0.713846,0.3773 0.540279,-0.17092 -0.721519,-0.37492 c -0.177535,0.0564 -0.35507,0.11245 -0.532606,0.16854 z"
       style="clip-rule:evenodd;fill:#00b8bb;fill-rule:evenodd;stroke-width:0.26458332;stroke-linejoin:round;stroke-miterlimit:2"
       id="path92" />
  </g>
</svg>
