<?xml version="1.0" encoding="UTF-8" standalone="no"?><!DOCTYPE svg PUBLIC "-//W3C//DTD SVG 1.1//EN" "http://www.w3.org/Graphics/SVG/1.1/DTD/svg11.dtd"><svg width="100%" height="100%" viewBox="0 0 185 58" version="1.1" xmlns="http://www.w3.org/2000/svg" xmlns:xlink="http://www.w3.org/1999/xlink" xml:space="preserve" xmlns:serif="http://www.serif.com/" style="fill-rule:evenodd;clip-rule:evenodd;stroke-linejoin:round;stroke-miterlimit:2;"><g><g transform="matrix(0.0581386,0,0,0.0581386,21.19,-11.4037)"><g transform="matrix(355.734,0,0,355.734,404.368,673.622)"><path d="M0.259,0.008c-0.044,0 -0.083,-0.008 -0.116,-0.024c-0.033,-0.015 -0.059,-0.038 -0.078,-0.067c-0.018,-0.028 -0.027,-0.062 -0.027,-0.1l0,-0.026c0,-0.003 0.001,-0.006 0.003,-0.009c0.003,-0.002 0.006,-0.003 0.009,-0.003l0.09,0c0.003,0 0.006,0.001 0.008,0.004c0.003,0.002 0.004,0.005 0.004,0.008l0,0.02c0,0.029 0.01,0.052 0.03,0.07c0.02,0.018 0.047,0.027 0.081,0.027c0.031,0 0.055,-0.008 0.072,-0.024c0.017,-0.016 0.025,-0.037 0.025,-0.063c0,-0.018 -0.005,-0.034 -0.014,-0.047c-0.009,-0.013 -0.023,-0.025 -0.04,-0.036c-0.017,-0.011 -0.043,-0.025 -0.078,-0.044c-0.041,-0.021 -0.073,-0.04 -0.098,-0.057c-0.025,-0.017 -0.046,-0.038 -0.063,-0.064c-0.017,-0.026 -0.025,-0.058 -0.025,-0.095c0,-0.057 0.019,-0.103 0.057,-0.136c0.039,-0.033 0.089,-0.05 0.152,-0.05c0.043,0 0.082,0.008 0.115,0.025c0.033,0.016 0.059,0.039 0.077,0.069c0.018,0.03 0.027,0.064 0.027,0.103l0,0.021c0,0.003 -0.001,0.006 -0.004,0.009c-0.002,0.002 -0.005,0.003 -0.008,0.003l-0.09,0c-0.003,0 -0.006,-0.001 -0.009,-0.003c-0.002,-0.003 -0.003,-0.006 -0.003,-0.009l0,-0.019c0,-0.029 -0.01,-0.052 -0.029,-0.071c-0.019,-0.019 -0.045,-0.028 -0.078,-0.028c-0.029,0 -0.051,0.008 -0.068,0.023c-0.017,0.015 -0.025,0.035 -0.025,0.062c0,0.018 0.004,0.033 0.013,0.046c0.009,0.013 0.022,0.025 0.04,0.036c0.017,0.011 0.044,0.026 0.08,0.044c0.048,0.027 0.083,0.049 0.106,0.064c0.023,0.015 0.042,0.035 0.058,0.06c0.015,0.024 0.023,0.054 0.023,0.089c0,0.059 -0.02,0.105 -0.059,0.14c-0.039,0.035 -0.092,0.052 -0.158,0.052Zm-0.138,-0.882c-0.001,-0.002 -0.002,-0.004 -0.002,-0.007c0,-0.005 0.003,-0.008 0.009,-0.008l0.071,0c0.007,0 0.011,0.003 0.014,0.008l0.04,0.065c0.001,0.002 0.003,0.003 0.004,0.003c0.001,0 0.002,-0.001 0.003,-0.003l0.04,-0.065c0.003,-0.005 0.007,-0.008 0.014,-0.008l0.071,0c0.005,0 0.008,0.002 0.01,0.005c0.001,0.003 0.001,0.006 -0.002,0.01l-0.071,0.103c-0.003,0.005 -0.008,0.008 -0.014,0.008l-0.105,0c-0.006,0 -0.011,-0.003 -0.014,-0.008l-0.068,-0.103Z" style="fill:#00b8bb;fill-rule:nonzero;"/></g><g transform="matrix(355.734,0,0,355.734,582.947,673.622)"><path d="M0.473,-0.7c0.003,0 0.006,0.001 0.008,0.004c0.003,0.002 0.004,0.005 0.004,0.008l0,0.077c0,0.003 -0.001,0.006 -0.004,0.009c-0.002,0.002 -0.005,0.003 -0.008,0.003l-0.155,0c-0.003,0 -0.005,0.002 -0.005,0.005l0,0.582c0,0.003 -0.001,0.006 -0.004,0.009c-0.002,0.002 -0.005,0.003 -0.008,0.003l-0.092,0c-0.003,0 -0.006,-0.001 -0.009,-0.003c-0.002,-0.003 -0.003,-0.006 -0.003,-0.009l0,-0.582c0,-0.003 -0.002,-0.005 -0.005,-0.005l-0.149,0c-0.003,0 -0.006,-0.001 -0.009,-0.003c-0.002,-0.003 -0.003,-0.006 -0.003,-0.009l0,-0.077c0,-0.003 0.001,-0.006 0.003,-0.008c0.003,-0.003 0.006,-0.004 0.009,-0.004l0.43,0Z" style="fill:#00b8bb;fill-rule:nonzero;"/></g><g transform="matrix(355.734,0,0,355.734,766.506,673.622)"><path d="M0.22,0c-0.007,0 -0.012,-0.003 -0.014,-0.01l-0.177,-0.677l0,-0.004c0,-0.006 0.004,-0.009 0.011,-0.009l0.099,0c0.007,0 0.011,0.003 0.013,0.01l0.118,0.503c0.001,0.003 0.002,0.004 0.003,0.004c0.001,0 0.002,-0.001 0.003,-0.004l0.115,-0.502c0.002,-0.007 0.006,-0.011 0.013,-0.011l0.097,0c0.009,0 0.012,0.004 0.01,0.013l-0.177,0.677c-0.002,0.007 -0.007,0.01 -0.014,0.01l-0.1,0Z" style="fill:#00b8bb;fill-rule:nonzero;"/></g><g transform="matrix(355.734,0,0,355.734,951.132,673.622)"><path d="M0.271,0.009c-0.044,0 -0.083,-0.009 -0.117,-0.027c-0.033,-0.018 -0.059,-0.043 -0.078,-0.077c-0.018,-0.033 -0.027,-0.071 -0.027,-0.114l0,-0.282c0,-0.043 0.009,-0.08 0.027,-0.113c0.019,-0.033 0.045,-0.059 0.078,-0.077c0.034,-0.018 0.073,-0.027 0.117,-0.027c0.045,0 0.084,0.009 0.117,0.027c0.034,0.018 0.06,0.044 0.079,0.077c0.019,0.033 0.028,0.07 0.028,0.113l0,0.282c0,0.043 -0.009,0.082 -0.028,0.115c-0.019,0.033 -0.045,0.058 -0.079,0.076c-0.033,0.018 -0.072,0.027 -0.117,0.027Zm0,-0.1c0.033,0 0.059,-0.01 0.078,-0.031c0.02,-0.021 0.03,-0.049 0.03,-0.082l0,-0.29c0,-0.034 -0.01,-0.061 -0.03,-0.082c-0.019,-0.021 -0.045,-0.032 -0.078,-0.032c-0.032,0 -0.058,0.011 -0.077,0.032c-0.019,0.021 -0.029,0.048 -0.029,0.082l0,0.29c0,0.033 0.01,0.061 0.029,0.082c0.019,0.021 0.045,0.031 0.077,0.031Z" style="fill:#00b8bb;fill-rule:nonzero;"/></g><g transform="matrix(355.734,0,0,355.734,1144.65,673.622)"><path d="M0.398,0c-0.007,0 -0.012,-0.003 -0.014,-0.01l-0.108,-0.287c-0.001,-0.003 -0.003,-0.004 -0.005,-0.004l-0.086,0c-0.003,0 -0.005,0.002 -0.005,0.005l0,0.284c0,0.003 -0.001,0.006 -0.004,0.009c-0.002,0.002 -0.005,0.003 -0.008,0.003l-0.092,0c-0.003,0 -0.006,-0.001 -0.008,-0.003c-0.003,-0.003 -0.004,-0.006 -0.004,-0.009l0,-0.676c0,-0.003 0.001,-0.006 0.004,-0.008c0.002,-0.003 0.005,-0.004 0.008,-0.004l0.231,0c0.038,0 0.072,0.009 0.101,0.026c0.029,0.017 0.052,0.041 0.068,0.072c0.016,0.031 0.024,0.066 0.024,0.106c0,0.043 -0.01,0.081 -0.03,0.113c-0.02,0.032 -0.047,0.055 -0.082,0.068c-0.003,0.001 -0.004,0.004 -0.003,0.007l0.118,0.294c0.001,0.001 0.001,0.003 0.001,0.006c0,0.005 -0.003,0.008 -0.01,0.008l-0.096,0Zm-0.213,-0.6c-0.003,0 -0.005,0.002 -0.005,0.005l0,0.199c0,0.003 0.002,0.005 0.005,0.005l0.105,0c0.028,0 0.051,-0.009 0.068,-0.028c0.017,-0.019 0.026,-0.045 0.026,-0.076c0,-0.032 -0.009,-0.057 -0.026,-0.076c-0.017,-0.019 -0.04,-0.029 -0.068,-0.029l-0.105,0Z" style="fill:#00b8bb;fill-rule:nonzero;"/></g><g transform="matrix(355.734,0,0,355.734,1335.68,673.622)"><path d="M0.076,0c-0.003,0 -0.006,-0.001 -0.008,-0.004c-0.003,-0.002 -0.004,-0.005 -0.004,-0.008l0,-0.676c0,-0.003 0.001,-0.006 0.004,-0.008c0.002,-0.003 0.005,-0.004 0.008,-0.004l0.092,0c0.003,0 0.006,0.001 0.008,0.004c0.003,0.002 0.004,0.005 0.004,0.008l0,0.676c0,0.003 -0.001,0.006 -0.004,0.009c-0.002,0.002 -0.005,0.003 -0.008,0.003l-0.092,0Z" style="fill:#00b8bb;fill-rule:nonzero;"/></g><g transform="matrix(355.734,0,0,355.734,1422.12,673.622)"><path d="M0.269,0.008c-0.043,0 -0.082,-0.009 -0.115,-0.027c-0.033,-0.017 -0.059,-0.042 -0.078,-0.074c-0.018,-0.032 -0.027,-0.069 -0.027,-0.111l0,-0.294c0,-0.042 0.009,-0.079 0.027,-0.111c0.019,-0.031 0.045,-0.056 0.078,-0.073c0.033,-0.017 0.072,-0.026 0.115,-0.026c0.043,0 0.082,0.008 0.115,0.025c0.033,0.017 0.059,0.041 0.078,0.072c0.018,0.031 0.027,0.068 0.027,0.109l0,0.006c0,0.003 -0.001,0.006 -0.004,0.009c-0.002,0.003 -0.005,0.004 -0.008,0.004l-0.093,0.004c-0.008,0 -0.012,-0.004 -0.012,-0.012l0,-0.012c0,-0.031 -0.01,-0.057 -0.028,-0.076c-0.019,-0.019 -0.044,-0.029 -0.075,-0.029c-0.031,0 -0.056,0.01 -0.075,0.029c-0.019,0.019 -0.029,0.045 -0.029,0.076l0,0.307c0,0.031 0.01,0.056 0.029,0.076c0.019,0.019 0.044,0.028 0.075,0.028c0.031,0 0.056,-0.009 0.075,-0.028c0.019,-0.02 0.028,-0.045 0.028,-0.076l0,-0.013c0,-0.007 0.004,-0.011 0.012,-0.011l0.093,0.004c0.003,0 0.006,0.001 0.009,0.004c0.002,0.002 0.003,0.005 0.003,0.008l0,0.004c0,0.041 -0.009,0.078 -0.027,0.11c-0.019,0.031 -0.045,0.056 -0.078,0.073c-0.033,0.017 -0.072,0.025 -0.115,0.025Z" style="fill:#00b8bb;fill-rule:nonzero;"/></g><g transform="matrix(355.734,0,0,355.734,1608.53,673.622)"><path d="M0.423,0c-0.007,0 -0.012,-0.003 -0.014,-0.01l-0.026,-0.107c-0.001,-0.003 -0.002,-0.004 -0.005,-0.004l-0.206,0c-0.003,0 -0.004,0.001 -0.005,0.004l-0.025,0.107c-0.002,0.007 -0.007,0.01 -0.014,0.01l-0.095,0c-0.009,0 -0.012,-0.004 -0.01,-0.013l0.182,-0.677c0.002,-0.007 0.007,-0.01 0.014,-0.01l0.114,0c0.007,0 0.012,0.003 0.014,0.01l0.182,0.677l0.001,0.004c0,0.006 -0.004,0.009 -0.011,0.009l-0.096,0Zm-0.232,-0.218c-0.001,0.002 0,0.004 0.001,0.005c0.001,0.001 0.003,0.001 0.004,0.001l0.158,0c0.001,0 0.003,-0.001 0.004,-0.002c0.001,-0.001 0.002,-0.002 0.001,-0.004l-0.082,-0.328c-0.001,-0.002 -0.002,-0.003 -0.003,-0.003c-0.001,0 -0.002,0.001 -0.003,0.003l-0.08,0.328Z" style="fill:#00b8bb;fill-rule:nonzero;"/></g><g transform="matrix(355.734,0,0,355.734,1876.04,673.622)"><path d="M0.473,-0.7c0.003,0 0.006,0.001 0.008,0.004c0.003,0.002 0.004,0.005 0.004,0.008l0,0.077c0,0.003 -0.001,0.006 -0.004,0.009c-0.002,0.002 -0.005,0.003 -0.008,0.003l-0.155,0c-0.003,0 -0.005,0.002 -0.005,0.005l0,0.582c0,0.003 -0.001,0.006 -0.004,0.009c-0.002,0.002 -0.005,0.003 -0.008,0.003l-0.092,0c-0.003,0 -0.006,-0.001 -0.009,-0.003c-0.002,-0.003 -0.003,-0.006 -0.003,-0.009l0,-0.582c0,-0.003 -0.002,-0.005 -0.005,-0.005l-0.149,0c-0.003,0 -0.006,-0.001 -0.009,-0.003c-0.002,-0.003 -0.003,-0.006 -0.003,-0.009l0,-0.077c0,-0.003 0.001,-0.006 0.003,-0.008c0.003,-0.003 0.006,-0.004 0.009,-0.004l0.43,0Z" style="fill:#00b8bb;fill-rule:nonzero;"/></g><g transform="matrix(355.734,0,0,355.734,2059.6,673.622)"><path d="M0.398,0c-0.007,0 -0.012,-0.003 -0.014,-0.01l-0.108,-0.287c-0.001,-0.003 -0.003,-0.004 -0.005,-0.004l-0.086,0c-0.003,0 -0.005,0.002 -0.005,0.005l0,0.284c0,0.003 -0.001,0.006 -0.004,0.009c-0.002,0.002 -0.005,0.003 -0.008,0.003l-0.092,0c-0.003,0 -0.006,-0.001 -0.008,-0.003c-0.003,-0.003 -0.004,-0.006 -0.004,-0.009l0,-0.676c0,-0.003 0.001,-0.006 0.004,-0.008c0.002,-0.003 0.005,-0.004 0.008,-0.004l0.231,0c0.038,0 0.072,0.009 0.101,0.026c0.029,0.017 0.052,0.041 0.068,0.072c0.016,0.031 0.024,0.066 0.024,0.106c0,0.043 -0.01,0.081 -0.03,0.113c-0.02,0.032 -0.047,0.055 -0.082,0.068c-0.003,0.001 -0.004,0.004 -0.003,0.007l0.118,0.294c0.001,0.001 0.001,0.003 0.001,0.006c0,0.005 -0.003,0.008 -0.01,0.008l-0.096,0Zm-0.213,-0.6c-0.003,0 -0.005,0.002 -0.005,0.005l0,0.199c0,0.003 0.002,0.005 0.005,0.005l0.105,0c0.028,0 0.051,-0.009 0.068,-0.028c0.017,-0.019 0.026,-0.045 0.026,-0.076c0,-0.032 -0.009,-0.057 -0.026,-0.076c-0.017,-0.019 -0.04,-0.029 -0.068,-0.029l-0.105,0Z" style="fill:#00b8bb;fill-rule:nonzero;"/></g><g transform="matrix(355.734,0,0,355.734,2250.63,673.622)"><path d="M0.271,0.009c-0.044,0 -0.083,-0.009 -0.117,-0.027c-0.033,-0.018 -0.059,-0.043 -0.078,-0.077c-0.018,-0.033 -0.027,-0.071 -0.027,-0.114l0,-0.282c0,-0.043 0.009,-0.08 0.027,-0.113c0.019,-0.033 0.045,-0.059 0.078,-0.077c0.034,-0.018 0.073,-0.027 0.117,-0.027c0.045,0 0.084,0.009 0.117,0.027c0.034,0.018 0.06,0.044 0.079,0.077c0.019,0.033 0.028,0.07 0.028,0.113l0,0.282c0,0.043 -0.009,0.082 -0.028,0.115c-0.019,0.033 -0.045,0.058 -0.079,0.076c-0.033,0.018 -0.072,0.027 -0.117,0.027Zm0,-0.1c0.033,0 0.059,-0.01 0.078,-0.031c0.02,-0.021 0.03,-0.049 0.03,-0.082l0,-0.29c0,-0.034 -0.01,-0.061 -0.03,-0.082c-0.019,-0.021 -0.045,-0.032 -0.078,-0.032c-0.032,0 -0.058,0.011 -0.077,0.032c-0.019,0.021 -0.029,0.048 -0.029,0.082l0,0.29c0,0.033 0.01,0.061 0.029,0.082c0.019,0.021 0.045,0.031 0.077,0.031Z" style="fill:#00b8bb;fill-rule:nonzero;"/></g><g transform="matrix(355.734,0,0,355.734,2444.15,673.622)"><path d="M0.269,0.008c-0.043,0 -0.082,-0.009 -0.115,-0.027c-0.033,-0.017 -0.059,-0.042 -0.078,-0.074c-0.018,-0.032 -0.027,-0.069 -0.027,-0.111l0,-0.294c0,-0.042 0.009,-0.079 0.027,-0.111c0.019,-0.031 0.045,-0.056 0.078,-0.073c0.033,-0.017 0.072,-0.026 0.115,-0.026c0.043,0 0.082,0.008 0.115,0.025c0.033,0.017 0.059,0.041 0.078,0.072c0.018,0.031 0.027,0.068 0.027,0.109l0,0.006c0,0.003 -0.001,0.006 -0.004,0.009c-0.002,0.003 -0.005,0.004 -0.008,0.004l-0.093,0.004c-0.008,0 -0.012,-0.004 -0.012,-0.012l0,-0.012c0,-0.031 -0.01,-0.057 -0.028,-0.076c-0.019,-0.019 -0.044,-0.029 -0.075,-0.029c-0.031,0 -0.056,0.01 -0.075,0.029c-0.019,0.019 -0.029,0.045 -0.029,0.076l0,0.307c0,0.031 0.01,0.056 0.029,0.076c0.019,0.019 0.044,0.028 0.075,0.028c0.031,0 0.056,-0.009 0.075,-0.028c0.019,-0.02 0.028,-0.045 0.028,-0.076l0,-0.013c0,-0.007 0.004,-0.011 0.012,-0.011l0.093,0.004c0.003,0 0.006,0.001 0.009,0.004c0.002,0.002 0.003,0.005 0.003,0.008l0,0.004c0,0.041 -0.009,0.078 -0.027,0.11c-0.019,0.031 -0.045,0.056 -0.078,0.073c-0.033,0.017 -0.072,0.025 -0.115,0.025Z" style="fill:#00b8bb;fill-rule:nonzero;"/></g><g transform="matrix(355.734,0,0,355.734,2633.76,673.622)"><path d="M0.38,-0.688c0,-0.003 0.001,-0.006 0.004,-0.008c0.002,-0.003 0.005,-0.004 0.008,-0.004l0.092,0c0.003,0 0.006,0.001 0.009,0.004c0.002,0.002 0.003,0.005 0.003,0.008l0,0.676c0,0.003 -0.001,0.006 -0.004,0.009c-0.002,0.002 -0.005,0.003 -0.008,0.003l-0.092,0c-0.003,0 -0.006,-0.001 -0.009,-0.003c-0.002,-0.003 -0.003,-0.006 -0.003,-0.009l0,-0.284c0,-0.003 -0.002,-0.005 -0.005,-0.005l-0.19,0c-0.003,0 -0.005,0.002 -0.005,0.005l0,0.284c0,0.003 -0.001,0.006 -0.004,0.009c-0.002,0.002 -0.005,0.003 -0.008,0.003l-0.092,0c-0.003,0 -0.006,-0.001 -0.008,-0.003c-0.003,-0.003 -0.004,-0.006 -0.004,-0.009l0,-0.676c0,-0.003 0.001,-0.006 0.004,-0.008c0.002,-0.003 0.005,-0.004 0.008,-0.004l0.092,0c0.003,0 0.006,0.001 0.009,0.004c0.002,0.002 0.003,0.005 0.003,0.008l0,0.281c0,0.003 0.002,0.005 0.005,0.005l0.19,0c0.003,0 0.005,-0.002 0.005,-0.005l0,-0.281Z" style="fill:#00b8bb;fill-rule:nonzero;"/></g><g transform="matrix(355.734,0,0,355.734,404.368,1029.36)"><path d="M0.076,0c-0.003,0 -0.006,-0.001 -0.008,-0.004c-0.003,-0.002 -0.004,-0.005 -0.004,-0.008l0,-0.676c0,-0.003 0.001,-0.006 0.004,-0.008c0.002,-0.003 0.005,-0.004 0.008,-0.004l0.207,0c0.065,0 0.116,0.018 0.155,0.054c0.039,0.036 0.059,0.084 0.059,0.144l0,0.304c0,0.06 -0.02,0.108 -0.059,0.144c-0.039,0.036 -0.09,0.054 -0.155,0.054l-0.207,0Zm0.104,-0.105c0,0.003 0.002,0.005 0.005,0.005l0.099,-0.001c0.029,0 0.052,-0.01 0.069,-0.03c0.017,-0.019 0.027,-0.046 0.028,-0.08l0,-0.278c0,-0.034 -0.009,-0.061 -0.027,-0.081c-0.017,-0.02 -0.041,-0.03 -0.07,-0.03l-0.099,0c-0.003,0 -0.005,0.002 -0.005,0.005l0,0.49Z" style="fill:#00b8bb;fill-rule:nonzero;"/></g><g transform="matrix(355.734,0,0,355.734,598.244,1029.36)"><path d="M0.278,0.008c-0.043,0 -0.082,-0.009 -0.115,-0.027c-0.033,-0.018 -0.059,-0.043 -0.078,-0.077c-0.018,-0.033 -0.027,-0.071 -0.027,-0.114l0,-0.478c0,-0.003 0.001,-0.006 0.003,-0.008c0.003,-0.003 0.006,-0.004 0.009,-0.004l0.092,0c0.003,0 0.006,0.001 0.008,0.004c0.003,0.002 0.004,0.005 0.004,0.008l0,0.484c0,0.033 0.009,0.06 0.028,0.081c0.019,0.021 0.045,0.031 0.076,0.031c0.031,0 0.057,-0.01 0.076,-0.031c0.019,-0.021 0.029,-0.048 0.029,-0.081l0,-0.484c0,-0.003 0.001,-0.006 0.003,-0.008c0.003,-0.003 0.006,-0.004 0.009,-0.004l0.092,0c0.003,0 0.006,0.001 0.008,0.004c0.003,0.002 0.004,0.005 0.004,0.008l0,0.478c0,0.043 -0.009,0.082 -0.028,0.115c-0.018,0.033 -0.044,0.058 -0.077,0.076c-0.033,0.018 -0.072,0.027 -0.116,0.027Z" style="fill:#00b8bb;fill-rule:nonzero;"/></g><g transform="matrix(355.734,0,0,355.734,794.965,1029.36)"><path d="M0.475,-0.612c0,0.003 -0.001,0.006 -0.004,0.008c-0.002,0.003 -0.005,0.004 -0.008,0.004l-0.278,0c-0.003,0 -0.005,0.002 -0.005,0.005l0,0.188c0,0.003 0.002,0.005 0.005,0.005l0.178,0c0.003,0 0.006,0.001 0.009,0.003c0.002,0.003 0.003,0.006 0.003,0.009l0,0.076c0,0.003 -0.001,0.006 -0.004,0.008c-0.002,0.003 -0.005,0.004 -0.008,0.004l-0.178,0c-0.003,0 -0.005,0.002 -0.005,0.005l0,0.192c0,0.003 0.002,0.005 0.005,0.005l0.278,0c0.003,0 0.006,0.001 0.008,0.003c0.003,0.003 0.004,0.006 0.004,0.009l0,0.076c0,0.003 -0.001,0.006 -0.004,0.008c-0.002,0.003 -0.005,0.004 -0.008,0.004l-0.387,0c-0.003,0 -0.006,-0.001 -0.009,-0.004c-0.002,-0.002 -0.003,-0.005 -0.003,-0.008l0,-0.676c0,-0.003 0.001,-0.006 0.004,-0.009c0.002,-0.002 0.005,-0.003 0.008,-0.003l0.387,0c0.003,0 0.006,0.001 0.008,0.003c0.003,0.003 0.004,0.006 0.004,0.009l0,0.076Z" style="fill:#00b8bb;fill-rule:nonzero;"/></g><g transform="matrix(355.734,0,0,355.734,977.456,1029.36)"><path d="M0.076,0c-0.003,0 -0.006,-0.001 -0.008,-0.004c-0.003,-0.002 -0.004,-0.005 -0.004,-0.008l0,-0.676c0,-0.003 0.001,-0.006 0.004,-0.008c0.002,-0.003 0.005,-0.004 0.008,-0.004l0.092,0c0.003,0 0.006,0.001 0.008,0.004c0.003,0.002 0.004,0.005 0.004,0.008l0,0.583c0,0.003 0.002,0.005 0.005,0.005l0.275,0c0.003,0 0.006,0.001 0.008,0.004c0.003,0.002 0.004,0.005 0.004,0.008l0,0.076c0,0.003 -0.001,0.006 -0.004,0.009c-0.002,0.002 -0.005,0.003 -0.008,0.003l-0.384,0Z" style="fill:#00b8bb;fill-rule:nonzero;"/></g><g transform="matrix(355.734,0,0,355.734,1162.08,1029.36)"><path d="M0.423,0c-0.007,0 -0.012,-0.003 -0.014,-0.01l-0.026,-0.107c-0.001,-0.003 -0.002,-0.004 -0.005,-0.004l-0.206,0c-0.003,0 -0.004,0.001 -0.005,0.004l-0.025,0.107c-0.002,0.007 -0.007,0.01 -0.014,0.01l-0.095,0c-0.009,0 -0.012,-0.004 -0.01,-0.013l0.182,-0.677c0.002,-0.007 0.007,-0.01 0.014,-0.01l0.114,0c0.007,0 0.012,0.003 0.014,0.01l0.182,0.677l0.001,0.004c0,0.006 -0.004,0.009 -0.011,0.009l-0.096,0Zm-0.232,-0.218c-0.001,0.002 0,0.004 0.001,0.005c0.001,0.001 0.003,0.001 0.004,0.001l0.158,0c0.001,0 0.003,-0.001 0.004,-0.002c0.001,-0.001 0.002,-0.002 0.001,-0.004l-0.082,-0.328c-0.001,-0.002 -0.002,-0.003 -0.003,-0.003c-0.001,0 -0.002,0.001 -0.003,0.003l-0.08,0.328Z" style="fill:#00b8bb;fill-rule:nonzero;"/></g><g transform="matrix(355.734,0,0,355.734,1358.45,1029.36)"><path d="M0.409,-0.688c0,-0.003 0.001,-0.006 0.003,-0.008c0.003,-0.003 0.006,-0.004 0.009,-0.004l0.092,0c0.003,0 0.006,0.001 0.008,0.004c0.003,0.002 0.004,0.005 0.004,0.008l0,0.676c0,0.003 -0.001,0.006 -0.004,0.009c-0.002,0.002 -0.005,0.003 -0.008,0.003l-0.097,0c-0.006,0 -0.011,-0.003 -0.014,-0.009l-0.218,-0.448c-0.001,-0.002 -0.003,-0.003 -0.004,-0.003c-0.001,0.001 -0.002,0.002 -0.002,0.005l0.001,0.443c0,0.003 -0.001,0.006 -0.004,0.009c-0.002,0.002 -0.005,0.003 -0.008,0.003l-0.092,0c-0.003,0 -0.006,-0.001 -0.009,-0.003c-0.002,-0.003 -0.003,-0.006 -0.003,-0.009l0,-0.676c0,-0.003 0.001,-0.006 0.004,-0.008c0.002,-0.003 0.005,-0.004 0.008,-0.004l0.096,0c0.007,0 0.011,0.003 0.014,0.009l0.219,0.45c0.001,0.002 0.003,0.003 0.004,0.003c0.001,-0.001 0.002,-0.002 0.002,-0.005l-0.001,-0.445Z" style="fill:#00b8bb;fill-rule:nonzero;"/></g><g transform="matrix(355.734,0,0,355.734,1567.62,1029.36)"><path d="M0.473,-0.7c0.003,0 0.006,0.001 0.008,0.004c0.003,0.002 0.004,0.005 0.004,0.008l0,0.077c0,0.003 -0.001,0.006 -0.004,0.009c-0.002,0.002 -0.005,0.003 -0.008,0.003l-0.155,0c-0.003,0 -0.005,0.002 -0.005,0.005l0,0.582c0,0.003 -0.001,0.006 -0.004,0.009c-0.002,0.002 -0.005,0.003 -0.008,0.003l-0.092,0c-0.003,0 -0.006,-0.001 -0.009,-0.003c-0.002,-0.003 -0.003,-0.006 -0.003,-0.009l0,-0.582c0,-0.003 -0.002,-0.005 -0.005,-0.005l-0.149,0c-0.003,0 -0.006,-0.001 -0.009,-0.003c-0.002,-0.003 -0.003,-0.006 -0.003,-0.009l0,-0.077c0,-0.003 0.001,-0.006 0.003,-0.008c0.003,-0.003 0.006,-0.004 0.009,-0.004l0.43,0Z" style="fill:#00b8bb;fill-rule:nonzero;"/></g><g transform="matrix(355.734,0,0,355.734,1740.86,1029.36)"><path d="M0.271,0.009c-0.044,0 -0.083,-0.009 -0.117,-0.027c-0.033,-0.018 -0.059,-0.043 -0.078,-0.077c-0.018,-0.033 -0.027,-0.071 -0.027,-0.114l0,-0.282c0,-0.043 0.009,-0.08 0.027,-0.113c0.019,-0.033 0.045,-0.059 0.078,-0.077c0.034,-0.018 0.073,-0.027 0.117,-0.027c0.045,0 0.084,0.009 0.117,0.027c0.034,0.018 0.06,0.044 0.079,0.077c0.019,0.033 0.028,0.07 0.028,0.113l0,0.282c0,0.043 -0.009,0.082 -0.028,0.115c-0.019,0.033 -0.045,0.058 -0.079,0.076c-0.033,0.018 -0.072,0.027 -0.117,0.027Zm0,-0.1c0.033,0 0.059,-0.01 0.078,-0.031c0.02,-0.021 0.03,-0.049 0.03,-0.082l0,-0.29c0,-0.034 -0.01,-0.061 -0.03,-0.082c-0.019,-0.021 -0.045,-0.032 -0.078,-0.032c-0.032,0 -0.058,0.011 -0.077,0.032c-0.019,0.021 -0.029,0.048 -0.029,0.082l0,0.29c0,0.033 0.01,0.061 0.029,0.082c0.019,0.021 0.045,0.031 0.077,0.031Z" style="fill:#00b8bb;fill-rule:nonzero;"/></g><g transform="matrix(355.734,0,0,355.734,1931.89,1029.36)"><path d="M0.22,0c-0.007,0 -0.012,-0.003 -0.014,-0.01l-0.177,-0.677l0,-0.004c0,-0.006 0.004,-0.009 0.011,-0.009l0.099,0c0.007,0 0.011,0.003 0.013,0.01l0.118,0.503c0.001,0.003 0.002,0.004 0.003,0.004c0.001,0 0.002,-0.001 0.003,-0.004l0.115,-0.502c0.002,-0.007 0.006,-0.011 0.013,-0.011l0.097,0c0.009,0 0.012,0.004 0.01,0.013l-0.177,0.677c-0.002,0.007 -0.007,0.01 -0.014,0.01l-0.1,0Z" style="fill:#00b8bb;fill-rule:nonzero;"/></g></g><path d="M29.001,1.884c-0.018,-0.271 0.133,-0.549 0.457,-0.664l3.761,-1.19c0.063,-0.018 0.088,-0.037 0.253,-0.028c0.085,0.01 0.167,0.034 0.245,0.071c1.461,0.759 2.949,1.468 4.383,2.277c0.06,0.033 0.115,0.076 0.161,0.126c0.105,0.112 0.162,0.27 0.166,0.432c0.005,0.022 0.008,0.044 0.008,0.066l-3.981,49.193c-0.004,0.027 -0.011,0.053 -0.018,0.078c-0.019,0.201 -0.147,0.389 -0.436,0.492l-3.807,1.204c-0.166,0.047 -0.342,0.032 -0.499,-0.043l-4.322,-2.244c-0.147,-0.083 -0.18,-0.127 -0.237,-0.209c-0.093,-0.135 -0.123,-0.296 -0.101,-0.45c-0.003,-0.032 -0.005,-0.066 -0.005,-0.101l3.701,-45.72l-2.461,0.778l-3.945,48.735c0.025,0.24 -0.09,0.481 -0.432,0.603l-3.808,1.205c-0.165,0.046 -0.341,0.031 -0.498,-0.044l-4.368,-2.268c-0.005,-0.002 -0.009,-0.005 -0.014,-0.008c-0.021,-0.011 -0.043,-0.024 -0.064,-0.039c-0.116,-0.077 -0.156,-0.141 -0.205,-0.241c-0.051,-0.102 -0.072,-0.212 -0.067,-0.321c0,-0.008 0,-0.016 0,-0.024l3.773,-46.371l-3.066,-1.592l-4.094,50.588c-0.004,0.026 -0.01,0.05 -0.017,0.074c-0.017,0.202 -0.146,0.393 -0.437,0.497l-3.808,1.204c-0.165,0.047 -0.341,0.032 -0.498,-0.043l-4.368,-2.268c-0.019,-0.011 -0.037,-0.021 -0.053,-0.032c-0.034,-0.018 -0.066,-0.041 -0.096,-0.067c-0.162,-0.131 -0.171,-0.247 -0.192,-0.361c-0.014,-0.075 -0.016,-0.15 -0.005,-0.222l3.973,-49.097c0.002,-0.256 0.154,-0.508 0.459,-0.616l3.807,-1.205c0.063,-0.018 0.088,-0.037 0.253,-0.028c0.085,0.01 0.167,0.034 0.245,0.071c1.162,0.604 2.341,1.176 3.497,1.792l0.108,-1.345c0.005,-0.264 0.142,-0.485 0.452,-0.597l3.764,-1.227c0.151,-0.044 0.082,-0.039 0.256,-0.03c0.086,0.01 0.169,0.033 0.247,0.071c1.157,0.601 2.331,1.17 3.481,1.783l0.083,-1.28c-0.025,-0.276 0.126,-0.561 0.455,-0.678l3.807,-1.204c0.151,-0.043 0.082,-0.038 0.254,-0.028c0.085,0.01 0.167,0.033 0.245,0.071c1.162,0.603 2.341,1.175 3.496,1.791l0.104,-1.279c0.002,-0.013 0.005,-0.026 0.008,-0.038Zm-19.381,6.741l-3.868,47.786l2.461,-0.777l3.868,-47.787l-2.461,0.778Zm-8.279,46.054l3.109,1.615l3.867,-47.779l-3.109,-1.615l-3.867,47.779Zm17.26,0.281l2.452,-0.774l3.913,-48.343l-3.088,-1.604l-3.277,50.721Zm-0.657,-47.672l-3.738,45.935l3.094,1.607l3.121,-48.325l-2.477,0.783Zm16.649,-2.672l-3.868,47.786l2.461,-0.777l3.868,-47.788l-2.461,0.779Zm-8.236,46.076l3.066,1.593l3.867,-47.782l-3.064,-1.619l-3.869,47.808Zm-20.02,-44.678l2.728,1.416l2.044,-0.646l-2.727,-1.417c-0.682,0.216 -1.363,0.431 -2.045,0.647Zm8.351,-1.323l2.701,1.403l2.045,-0.647l-2.725,-1.415c-0.674,0.22 -1.347,0.44 -2.021,0.659Zm8.298,-1.35l2.727,1.417l2.045,-0.647l-2.727,-1.416c-0.682,0.215 -1.363,0.431 -2.045,0.646Zm8.356,-1.346l2.698,1.426l2.042,-0.646l-2.727,-1.417c-0.671,0.213 -1.342,0.425 -2.013,0.637Z" style="fill:#00b8bb;"/></g></svg>