<?xml version="1.0" encoding="UTF-8" standalone="no"?>
<!DOCTYPE svg PUBLIC "-//W3C//DTD SVG 1.1//EN" "http://www.w3.org/Graphics/SVG/1.1/DTD/svg11.dtd">
<svg width="100%" height="100%" viewBox="0 0 672 446" version="1.1" xmlns="http://www.w3.org/2000/svg" xmlns:xlink="http://www.w3.org/1999/xlink" xml:space="preserve" xmlns:serif="http://www.serif.com/" style="fill-rule:evenodd;clip-rule:evenodd;stroke-linecap:round;stroke-linejoin:round;">
    <g transform="matrix(1,0,0,1,-1057.19,-289.832)">
        <g transform="matrix(1,0,0,4.13981,0,0)">
            <g transform="matrix(1.01,0,0,1.18413,-17.2728,-15.3915)">
                <g transform="matrix(13.7427,0,0,3.319,1727.78,118.315)">
                    <path d="M0,0.202L-0.073,0.174L-0.165,0.159L-0.202,0.128L-0.208,0.064L-0.148,0.002L-0.18,-0.126L-0.245,-0.268L-0.302,-0.396L-0.433,-0.459L-0.648,-0.501L-0.627,-0.657L-0.593,-0.824L-0.519,-0.917L-0.463,-0.973L-0.267,-0.943L-0.132,-0.972L-0.104,-1.004L-0.139,-1.068L-0.364,-1.126L-0.567,-1.206L-0.664,-1.304L-0.713,-1.409L-0.597,-1.472L-0.382,-1.532L-0.255,-1.675L-0.117,-1.828L-0.068,-1.94L-0.053,-2.061L-0.078,-2.195L-0.217,-2.331L-0.24,-2.474L-0.191,-2.573L-0.228,-2.647L-0.32,-2.69L-0.442,-2.677L-0.574,-2.627L-0.741,-2.636L-1.032,-2.807L-1.339,-2.975L-1.502,-2.981L-1.618,-3.006L-1.729,-3.092L-1.805,-3.203L-1.876,-3.253L-1.974,-3.222L-2.116,-3.171L-2.305,-3.185L-2.568,-3.314L-2.812,-3.463L-2.976,-3.467L-3.152,-3.487L-3.51,-3.678L-3.596,-3.676L-3.64,-3.62L-3.643,-3.466L-3.665,-3.434L-3.72,-3.409L-3.83,-3.392L-4.009,-3.487L-4.477,-3.801L-4.681,-4.03L-4.745,-4.197L-4.899,-4.302L-5.056,-4.455L-5.193,-4.469L-5.337,-4.42L-5.469,-4.346L-5.534,-4.326L-5.774,-4.3L-6.151,-4.197L-6.244,-4.098L-6.364,-4.018L-6.474,-4.073L-6.59,-4.172L-6.819,-4.207L-6.921,-4.172L-7.038,-4.24L-7.147,-4.361L-7.284,-4.449L-7.473,-4.473L-7.679,-4.511L-7.83,-4.443L-8.021,-4.314L-8.169,-4.363L-8.268,-4.517L-8.371,-4.56L-8.526,-4.732L-8.582,-4.886L-8.557,-4.954L-8.52,-5.04L-8.534,-5.138L-8.585,-5.224L-8.653,-5.292L-8.748,-5.519L-8.815,-5.617L-8.836,-5.697L-8.802,-5.77L-8.848,-5.819L-8.922,-5.825L-9.041,-5.819L-9.114,-5.856L-9.205,-5.985L-9.262,-6.114L-9.317,-6.162L-9.442,-6.159L-9.645,-6.132L-9.822,-6.089L-9.905,-6.095L-10.076,-6.162L-10.299,-6.235L-10.737,-6.249L-10.775,-6.274L-10.756,-6.32L-10.678,-6.395L-10.696,-6.456L-10.779,-6.506L-10.835,-6.628L-10.849,-6.766L-10.884,-6.915L-10.992,-7.031L-11.055,-7.111L-11.056,-7.184L-10.86,-7.212L-10.631,-7.264L-10.598,-7.318L-10.618,-7.401L-11.158,-7.828L-11.375,-8.205L-11.561,-8.409L-11.754,-8.546L-11.903,-8.608L-12.104,-8.582L-12.376,-8.585L-12.659,-8.627L-12.889,-8.599L-13.283,-8.42L-13.439,-8.412L-13.718,-8.468L-13.957,-8.531L-14.079,-8.528L-14.15,-8.502L-14.191,-8.453L-14.283,-8.115L-14.386,-8.049L-14.536,-7.98L-14.671,-7.968L-14.785,-7.971L-14.958,-8.023L-15.122,-8.084L-15.155,-8.088L-15.476,-8.103L-15.859,-8.097L-16.061,-7.979L-16.148,-8.006L-16.302,-8.036L-16.46,-7.97L-16.664,-7.771L-16.802,-7.647L-16.93,-7.473L-16.966,-7.379L-17.04,-7.205L-17.103,-7.006L-17.04,-6.867L-16.954,-6.738L-16.922,-6.599L-16.874,-6.489L-16.96,-6.41L-17.001,-6.295L-17.165,-6.315L-17.374,-6.425L-17.434,-6.584L-17.598,-6.695L-17.704,-6.752L-17.869,-6.761L-18.126,-6.709L-18.465,-6.67L-18.723,-6.659L-18.858,-6.603L-19.061,-6.548L-19.148,-6.613L-19.284,-6.793L-19.398,-6.973L-19.472,-7.051L-19.531,-7.073L-19.6,-7.069L-19.675,-7.012L-19.728,-6.954L-19.811,-6.933L-19.938,-6.886L-20.027,-6.822L-20.115,-6.657L-20.185,-6.668L-20.261,-6.706L-20.363,-6.891L-20.481,-6.934L-20.663,-6.936L-20.892,-6.975L-21.08,-7.031L-21.145,-7.018L-21.246,-6.939L-21.362,-6.928L-21.627,-6.998L-21.674,-6.966L-21.731,-6.862L-21.802,-6.762L-21.871,-6.752L-21.913,-6.778L-21.908,-6.955L-22.064,-7.018L-22.317,-7.027L-22.492,-7.002L-22.579,-7.009L-22.627,-7.043L-22.872,-7.34L-22.989,-7.359L-23.192,-7.345L-23.499,-7.38L-23.854,-7.447L-24.048,-7.472L-24.154,-7.538L-24.371,-7.561L-24.959,-7.686L-25.197,-7.708L-25.544,-7.71L-26.074,-7.738L-26.411,-7.723L-26.565,-7.681L-26.744,-7.655L-27.048,-7.632L-27.173,-7.635L-27.368,-7.621L-27.59,-7.588L-27.65,-7.525L-27.713,-7.389L-27.953,-7.153L-28.192,-6.996L-28.237,-6.982L-28.391,-7.066L-28.515,-7.094L-28.66,-7.103L-28.759,-7.076L-28.821,-7.037L-28.799,-6.854L-28.812,-6.838L-28.71,-6.69L-28.666,-6.574L-28.697,-6.483L-28.678,-6.392L-28.59,-6.295L-28.311,-5.996L-28.163,-5.709L-28.073,-5.597L-27.875,-5.451L-27.854,-5.391L-27.925,-5.336L-27.985,-5.329L-28.033,-5.314L-28.061,-5.263L-28.008,-5.208L-27.935,-5.127L-27.836,-4.899L-27.83,-4.712L-27.89,-4.665L-27.963,-4.554L-28.011,-4.452L-28.451,-4.382L-28.551,-4.273L-28.78,-4.063L-28.938,-3.942L-29.17,-3.723L-29.535,-3.346L-29.668,-3.189L-29.765,-3.058L-30.06,-2.711L-30.148,-2.565L-30.121,-2.445L-30.001,-2.162L-29.971,-2.035L-29.982,-1.917L-30.009,-1.812L-30,-1.765L-29.902,-1.689L-29.745,-1.569L-29.734,-1.529L-29.751,-1.477L-29.801,-1.437L-29.99,-1.479L-30.204,-1.56L-30.275,-1.55L-30.294,-1.461L-30.358,-1.356L-30.44,-1.247L-30.505,-1.117L-30.587,-0.837L-30.644,-0.708L-30.892,-0.452L-30.89,-0.096L-30.726,-0.113L-30.719,-0.111L-30.679,-0.1L-30.646,0.001L-30.641,0.008L-30.598,0.075L-30.555,0.163L-30.493,0.23L-30.364,0.258L-30.192,0.341L-30.075,0.496L-29.908,0.561L-29.896,0.563L-29.865,0.555L-29.748,0.55L-29.723,0.581L-29.625,0.657L-29.585,0.725L-29.599,0.795L-29.577,0.876L-29.54,0.904L-29.479,0.867L-29.239,0.775L-29.182,0.682L-29.103,0.598L-28.993,0.604L-28.623,0.811L-28.241,0.798L-28.171,0.806L-28.148,0.81L-28.1,0.827L-27.585,0.929L-27.507,0.918L-27.486,0.91L-27.276,0.994L-27.095,0.983L-26.928,0.924L-26.75,0.905L-26.583,0.94L-26.45,1.059L-26.107,1.311L-26.004,1.405L-25.856,1.391L-25.695,1.344L-25.541,1.175L-25.043,0.984L-24.656,0.936L-24.281,0.86L-23.845,0.805L-23.729,0.649L-23.667,0.542L-23.633,0.344L-23.401,0.287L-23.179,0.247L-23.1,0.222L-23.069,0.147L-22.728,-0.056L-22.632,-0.023L-22.445,-0.015L-22.065,-0.022L-21.889,-0.155L-21.77,-0.118L-21.68,-0.178L-21.53,-0.254L-21.506,-0.238L-21.485,-0.226L-21.239,-0.192L-21.05,-0.12L-20.918,-0.008L-20.786,0.061L-20.653,0.088L-20.576,0.143L-20.554,0.228L-20.429,0.269L-20.2,0.268L-20.098,0.324L-20.122,0.437L-20.096,0.474L-20.018,0.435L-19.953,0.468L-19.913,0.552L-19.873,0.591L-19.768,0.461L-19.643,0.474L-19.34,0.528L-19.155,0.798L-19.047,0.896L-18.956,0.935L-18.85,0.893L-18.757,0.843L-18.698,0.866L-18.561,1.046L-18.511,1.28L-18.503,1.375L-18.531,1.535L-18.576,1.704L-18.615,1.815L-18.586,1.903L-18.536,1.978L-18.462,2.002L-18.216,2.152L-18.12,2.257L-17.987,2.334L-17.891,2.338L-17.837,2.381L-17.815,2.434L-17.815,2.568L-17.857,2.693L-17.843,2.774L-17.749,2.869L-17.73,2.98L-17.717,3.051L-17.667,3.106L-17.443,3.228L-17.155,3.346L-17.076,3.448L-17.021,3.576L-17.014,3.791L-17.014,3.979L-16.628,4.232L-16.665,4.279L-16.716,4.33L-17.059,4.369L-17.127,4.39L-17.296,4.2L-17.377,4.176L-17.445,4.245L-17.528,4.285L-17.635,4.265L-17.752,4.206L-17.813,4.165L-17.859,4.16L-17.925,4.201L-18.02,4.184L-18.085,4.137L-18.158,4.298L-18.209,4.332L-18.243,4.327L-18.275,4.053L-18.304,4.012L-18.374,4.005L-18.537,4.07L-18.69,4.154L-18.738,4.229L-18.72,4.364L-18.683,4.525L-18.552,4.769L-18.602,4.876L-18.63,5.045L-18.789,5.2L-18.975,5.29L-18.976,5.476L-19.073,5.602L-19.248,5.728L-19.359,5.881L-19.319,5.985L-19.302,6.084L-19.318,6.151L-19.318,6.202L-19.365,6.225L-19.647,6.244L-19.725,6.276L-19.811,6.349L-19.606,6.573L-19.361,6.692L-18.804,6.818L-18.756,6.803L-18.753,6.779L-18.794,6.747L-18.803,6.705L-18.781,6.654L-18.706,6.651L-18.578,6.697L-18.349,6.631L-18.019,6.452L-17.705,6.415L-17.406,6.521L-17.246,6.645L-17.141,6.762L-17.12,6.581L-17.259,6.153L-17.393,6.024L-17.408,5.844L-17.369,5.757L-17.276,5.687L-17.032,5.736L-16.894,5.692L-16.719,5.593L-16.417,5.48L-16.359,5.444L-15.924,4.957L-15.895,4.924L-15.674,4.573L-15.655,4.491L-15.581,4.356L-15.514,4.123L-15.49,3.95L-14.91,3.792L-14.586,3.819L-14.445,3.783L-14.305,3.544L-14.198,3.459L-14.227,3.705L-14.004,3.753L-13.787,3.777L-13.628,3.737L-13.594,3.58L-13.621,3.134L-13.72,2.966L-13.79,2.783L-13.954,2.508L-13.804,2.63L-13.743,2.765L-13.587,3.012L-13.515,3.29L-13.532,3.443L-13.464,3.608L-13.326,3.753L-13.17,3.852L-12.766,3.922L-12.386,3.812L-12.425,3.863L-12.641,4.025L-12.732,4.119L-13.143,4.043L-13.59,4.017L-13.881,3.944L-14.163,3.945L-14.032,4.042L-13.866,4.125L-13.615,4.146L-13.34,4.217L-13.322,4.31L-13.355,4.36L-13.484,4.394L-13.611,4.399L-13.717,4.446L-13.617,4.54L-13.454,4.528L-13.254,4.585L-12.708,4.87L-12.439,4.971L-11.888,4.867L-11.632,4.884L-11.188,4.771L-11.068,4.88L-10.76,5.028L-10.644,4.982L-10.48,4.944L-10.39,5.082L-10.32,5.269L-10.643,5.506L-10.953,5.664L-11.191,5.699L-11.708,6.039L-12.228,6.45L-12.139,6.566L-12.029,6.614L-11.751,6.547L-11.491,6.571L-10.982,6.903L-10.845,6.955L-10.617,6.918L-10.309,7.114L-10.2,7.546L-10.162,7.705L-10.254,8.197L-10.308,8.33L-10.353,8.377L-10.364,8.471L-9.972,8.731L-9.787,8.805L-9.51,8.829L-9.227,8.751L-8.888,8.504L-8.599,8.108L-8.184,7.923L-7.885,7.887L-7.526,7.933L-7.431,7.73L-7.094,7.552L-6.922,7.112L-6.756,7.067L-6.561,7.104L-6.408,7.172L-6.321,7.24L-6.195,7.314L-5.875,7.259L-5.565,7.269L-5.286,7.184L-5.248,6.993L-5.23,6.822L-5.137,6.667L-5.054,6.472L-5.326,6.386L-5.573,6.335L-5.784,6.343L-5.94,6.406L-6.04,6.52L-6.364,6.455L-6.506,6.481L-6.826,6.652L-7.005,6.64L-7.162,6.559L-7.387,6.356L-7.87,5.804L-8.12,5.417L-8.235,5.181L-8.28,4.993L-8.3,4.74L-8.103,4.626L-7.944,4.571L-7.697,4.193L-7.571,4.346L-7.558,4.469L-7.568,4.545L-7.665,4.648L-7.989,4.923L-7.917,4.927L-7.787,4.879L-7.672,4.785L-7.589,4.709L-7.384,4.322L-6.701,3.793L-6.367,3.7L-6.064,3.746L-5.919,3.718L-5.673,3.556L-5.459,3.491L-5.233,3.488L-5.033,3.596L-4.824,3.354L-4.637,3.243L-4.35,3.153L-4.138,3.154L-3.828,2.81L-3.337,2.764L-2.722,2.798L-2.662,2.773L-2.69,2.677L-2.71,2.59L-2.687,2.508L-2.617,2.455L-2.597,2.407L-2.602,2.369L-2.675,2.345L-2.735,2.325L-2.754,2.272L-2.741,2.224L-2.697,2.157L-2.684,2.08L-2.702,1.926L-2.676,1.752L-2.55,1.641L-2.306,1.614L-2.094,1.519L-1.973,1.413L-1.831,1.145L-1.702,1.105L-1.426,1.12L-1.248,1.144L-0.843,1.152L-0.38,1.136L-0.247,1.128L-0.187,1.035L-0.217,0.867L-0.173,0.712L-0.093,0.421L0.016,0.27L0,0.202ZM-13.953,4.56L-14.054,4.493L-14.203,4.34L-14.153,4.486L-14.081,4.592L-13.832,4.687L-13.279,4.788L-13.029,4.817L-13.282,4.709L-13.953,4.56Z" style="fill:white;stroke:rgb(0,184,187);stroke-width:0.04px;"/>
                </g>
                <g transform="matrix(13.7427,0,0,3.319,1310.15,118.922)">
                    <path d="M0,-1.752L-0.475,-1.909L-0.797,-2.031L-0.832,-2.111L-0.898,-2.226L-1.038,-2.322L-1.348,-2.406L-1.477,-2.471L-1.976,-2.508L-2.191,-2.509L-2.343,-2.482L-2.44,-2.485L-2.566,-2.315L-2.656,-2.265L-2.791,-2.26L-2.911,-2.29L-3.037,-2.38L-3.234,-2.427L-3.373,-2.405L-3.477,-2.424L-3.566,-2.429L-3.596,-2.411L-3.668,-2.413L-3.77,-2.37L-3.88,-2.31L-4.003,-2.264L-4.095,-2.164L-4.171,-1.97L-4.419,-2.057L-4.498,-2.019L-4.612,-1.994L-4.692,-2.02L-4.676,-2.087L-4.645,-2.163L-4.651,-2.268L-4.679,-2.385L-4.756,-2.423L-4.87,-2.437L-4.93,-2.46L-4.938,-2.498L-4.998,-2.548L-5.104,-2.673L-5.205,-2.829L-5.273,-2.875L-5.365,-2.801L-5.505,-2.717L-5.593,-2.688L-5.756,-2.445L-6.066,-2.437L-6.09,-2.55L-6.128,-2.659L-6.311,-2.686L-6.354,-2.683L-6.451,-2.65L-6.577,-2.638L-6.714,-2.644L-6.818,-2.586L-6.915,-2.491L-7.016,-2.426L-7.07,-2.367L-7.099,-2.307L-7.443,-2.135L-7.489,-2.064L-7.524,-1.966L-7.535,-1.835L-7.556,-1.717L-7.614,-1.654L-7.802,-1.601L-7.848,-1.572L-7.881,-1.512L-7.984,-1.419L-8.106,-1.331L-8.332,-1.23L-8.577,-1.2L-8.899,-1.233L-9.087,-1.272L-9.177,-1.229L-9.298,-1.097L-9.425,-0.871L-9.475,-0.701L-9.482,-0.678L-9.489,-0.596L-9.553,-0.493L-9.621,-0.357L-9.613,-0.238L-9.414,0.174L-9.241,0.424L-9.207,0.52L-9.098,0.593L-9.051,0.58L-8.873,0.597L-8.83,0.621L-8.802,0.626L-8.511,0.852L-8.237,1.021L-8.014,1.108L-7.691,1.115L-7.347,1.123L-6.774,1.093L-6.344,1.071L-6.317,1.029L-6.256,0.927L-6.311,0.841L-6.312,0.738L-6.245,0.606L-6.037,0.495L-5.431,0.447L-5.084,0.365L-5.036,0.252L-4.925,0.142L-4.82,0.119L-4.673,0.17L-4.494,0.268L-4.338,0.319L-4.25,0.286L-3.948,0.121L-3.601,-0.039L-3.378,-0.474L-3.355,-0.544L-3.093,-0.593L-2.706,-0.585L-2.505,-0.528L-2.355,-0.498L-2.132,-0.508L-1.815,-0.602L-1.696,-0.599L-1.6,-0.533L-1.496,-0.476L-1.424,-0.406L-1.367,-0.307L-1.337,-0.27L-1.289,-0.22L-1.204,-0.15L-1.124,-0.132L-0.535,-0.252L-0.501,-0.278L-0.503,-0.635L-0.255,-0.89L-0.198,-1.02L-0.117,-1.299L-0.051,-1.43L0.031,-1.538L0.095,-1.643L0.114,-1.733L0,-1.752Z" style="fill:white;stroke:rgb(0,184,187);stroke-width:0.04px;"/>
                </g>
                <g transform="matrix(13.7427,0,0,3.319,1329.6,141.435)">
                    <path d="M0,4.311L-0.077,4.207L-0.177,4.092L-0.307,4.012L-0.569,3.875L-0.675,3.737L-0.73,3.557L-0.805,3.421L-0.883,3.332L-0.901,3.26L-0.937,3.171L-0.954,2.997L-0.907,2.765L-0.873,2.684L-0.788,2.661L-0.567,2.537L-0.565,2.379L-0.53,2.281L-0.46,2.225L-0.396,2.187L-0.427,2.164L-0.44,2.082L-0.507,2.017L-0.627,1.97L-0.722,1.884L-0.793,1.76L-0.786,1.643L-0.7,1.534L-0.586,1.486L-0.442,1.501L-0.384,1.47L-0.413,1.393L-0.558,1.295L-0.82,1.175L-1.077,1.24L-1.328,1.49L-1.517,1.53L-1.644,1.362L-1.858,1.262L-2.159,1.23L-2.346,1.166L-2.42,1.069L-2.555,0.994L-2.848,0.915L-2.855,0.839L-2.809,0.821L-2.708,0.814L-2.571,0.798L-2.551,0.755L-2.552,0.715L-2.662,0.665L-2.774,0.631L-2.833,0.597L-2.871,0.56L-2.88,0.34L-2.85,0.313L-2.806,0.311L-2.763,0.288L-2.743,0.197L-2.688,0.122L-2.647,0.095L-2.653,0.039L-2.699,-0.013L-2.762,-0.058L-2.851,-0.085L-3.129,-0.163L-3.273,-0.273L-3.358,-0.277L-3.495,-0.337L-3.645,-0.433L-3.776,-0.568L-3.916,-0.655L-3.952,-0.691L-3.957,-0.725L-3.934,-0.763L-3.937,-0.804L-3.979,-0.937L-3.962,-1.077L-3.974,-1.209L-3.979,-1.268L-4.006,-1.286L-4.028,-1.266L-4.06,-1.241L-4.093,-1.236L-4.197,-1.332L-4.332,-1.528L-4.42,-1.594L-4.591,-1.683L-4.734,-1.759L-4.842,-1.923L-4.952,-2.049L-5.01,-2.087L-5.097,-2.121L-5.498,-2.164L-5.654,-2.13L-5.865,-2.143L-6.061,-2.181L-6.205,-2.15L-6.327,-2.003L-6.389,-1.953L-6.438,-1.921L-6.546,-1.874L-6.635,-1.819L-6.756,-1.778L-6.865,-1.784L-6.971,-1.848L-7.008,-1.833L-7.038,-1.775L-7.092,-1.725L-7.244,-1.663L-7.284,-1.664L-7.289,-1.611L-7.299,-1.52L-7.392,-1.455L-7.289,-1.306L-7.187,-1.064L-7.234,-0.944L-7.167,-0.851L-6.986,-0.784L-6.969,-0.758L-7.022,-0.73L-7.064,-0.651L-7.064,-0.507L-6.903,-0.371L-6.58,-0.243L-6.478,-0.221L-6.437,-0.172L-6.383,-0.14L-6.35,-0.101L-6.346,-0.05L-6.368,-0.015L-6.517,-0.003L-6.689,-0.004L-6.813,-0.066L-6.822,-0.021L-6.822,0.031L-6.939,0.062L-6.859,0.596L-6.881,0.698L-6.924,0.732L-6.965,0.718L-7.014,0.714L-7.038,0.747L-7.015,0.823L-6.953,0.818L-6.797,0.757L-6.612,0.725L-6.477,0.762L-6.411,0.797L-6.395,0.846L-6.428,1.014L-6.496,1.196L-6.61,1.384L-6.73,1.562L-6.76,1.656L-6.763,1.805L-6.774,1.923L-6.754,1.987L-6.71,2.047L-6.567,2.094L-6.371,2.212L-6.203,2.366L-5.988,2.541L-5.92,2.606L-5.917,2.676L-5.976,2.727L-6.153,2.747L-6.339,2.732L-6.411,2.714L-6.476,2.735L-6.516,2.775L-6.492,2.822L-6.293,3.034L-6.06,3.339L-6.042,3.469L-6.065,3.572L-6.113,3.644L-6.206,3.632L-6.278,3.576L-6.384,3.579L-6.466,3.595L-6.569,3.706L-6.573,3.732L-6.561,3.81L-6.518,3.885L-6.374,3.963L-6.16,4.116L-5.904,4.397L-5.788,4.481L-5.686,4.501L-5.484,4.618L-5.346,4.647L-5.191,4.679L-4.78,4.923L-4.597,4.994L-4.465,5.086L-4.448,5.173L-4.451,5.226L-4.231,5.162L-4.201,5.116L-4.256,5.018L-4.229,4.956L-3.971,4.781L-3.93,4.702L-3.917,4.64L-3.956,4.574L-4.011,4.47L-3.988,4.427L-3.853,4.367L-3.744,4.298L-3.678,4.292L-3.634,4.342L-3.632,4.394L-3.591,4.481L-3.506,4.528L-3.365,4.605L-3.202,4.657L-3.072,4.762L-2.892,4.95L-2.862,5.042L-2.704,5.125L-2.556,5.218L-2.57,5.391L-2.076,5.542L-1.966,5.541L-1.912,5.567L-1.912,5.607L-1.944,5.728L-2.126,6.1L-2.138,6.177L-2.278,6.258L-2.295,6.305L-2.25,6.408L-2.209,6.48L-2.108,6.492L-1.893,6.436L-1.762,6.36L-1.693,6.348L-1.603,6.319L-1.471,6.323L-1.336,6.357L-1.168,6.312L-1.005,6.241L-0.937,6.259L-0.861,6.32L-0.813,6.336L-0.674,6.304L-0.635,6.239L-0.505,6.062L-0.494,5.975L-0.511,5.926L-0.609,5.841L-0.683,5.655L-0.644,5.482L-0.645,5.393L-0.697,5.305L-0.653,5.195L-0.556,5.135L-0.494,5.117L-0.23,5.105L-0.074,4.886L0.024,4.816L0.121,4.691L0.167,4.646L0.207,4.549L0.217,4.45L0,4.311Z" style="fill:white;stroke:rgb(0,184,187);stroke-width:0.04px;"/>
                </g>
                <g transform="matrix(13.7427,0,0,3.319,1490.77,131.405)">
                    <path d="M0,2.701L-0.16,2.578L-0.459,2.471L-0.773,2.508L-1.103,2.687L-1.332,2.753L-1.46,2.707L-1.534,2.71L-1.557,2.761L-1.547,2.803L-1.506,2.836L-1.51,2.859L-1.557,2.874L-2.114,2.748L-2.36,2.629L-2.564,2.405L-2.664,2.267L-2.763,2.147L-2.834,2.082L-2.809,2.052L-2.741,2.018L-2.693,1.977L-2.712,1.834L-2.763,1.669L-2.804,1.589L-2.818,1.464L-2.859,1.269L-2.855,0.908L-2.753,0.452L-2.694,0.226L-2.742,0.102L-2.738,-0.187L-2.811,-0.33L-2.922,-0.517L-3.094,-0.924L-3.276,-1.065L-3.5,-1.221L-3.599,-1.339L-3.67,-1.468L-3.806,-1.597L-3.959,-1.715L-4.155,-2.01L-4.255,-2.143L-4.285,-2.179L-4.496,-2.368L-4.613,-2.539L-4.677,-2.679L-4.717,-2.809L-4.876,-3.066L-5.016,-3.259L-5.146,-3.396L-5.208,-3.493L-5.356,-3.616L-5.561,-3.713L-5.69,-3.73L-5.854,-3.722L-5.932,-3.697L-6.154,-3.657L-6.387,-3.6L-6.421,-3.402L-6.483,-3.295L-6.598,-3.139L-7.035,-3.084L-7.41,-3.007L-7.797,-2.96L-8.294,-2.769L-8.448,-2.6L-8.61,-2.552L-8.758,-2.539L-8.861,-2.633L-9.203,-2.885L-9.337,-3.004L-9.504,-3.039L-9.681,-3.02L-9.849,-2.961L-10.029,-2.95L-10.24,-3.034L-10.261,-3.026L-10.339,-3.015L-10.854,-3.117L-10.902,-3.134L-10.925,-3.138L-10.995,-3.146L-11.377,-3.133L-11.747,-3.339L-11.856,-3.346L-11.936,-3.262L-11.992,-3.169L-12.233,-3.077L-12.293,-3.04L-12.333,-2.986L-12.621,-2.716L-12.736,-2.645L-12.814,-2.63L-12.94,-2.658L-13.067,-2.637L-13.178,-2.579L-13.283,-2.561L-13.359,-2.492L-13.454,-2.345L-13.574,-2.22L-13.698,-2.143L-13.761,-2.074L-13.755,-1.835L-13.823,-1.767L-13.915,-1.697L-13.964,-1.636L-14.09,-1.273L-14.195,-1.156L-14.296,-1.067L-14.309,-0.985L-14.302,-0.892L-14.411,-0.706L-14.558,-0.512L-14.584,-0.433L-14.544,-0.326L-14.688,-0.203L-14.772,-0.143L-14.842,-0.115L-14.883,-0.038L-14.948,0.15L-14.924,0.234L-14.918,0.311L-15.043,0.356L-15.076,0.441L-15.103,0.547L-15.154,0.594L-15.293,0.682L-15.651,0.644L-15.784,0.673L-15.821,0.736L-15.827,0.786L-15.869,0.833L-15.948,0.892L-16.03,0.919L-16.218,0.846L-16.614,0.92L-16.68,0.973L-16.569,1.099L-16.461,1.263L-16.318,1.339L-16.148,1.428L-16.059,1.494L-15.924,1.69L-15.82,1.786L-15.788,1.781L-15.755,1.756L-15.733,1.736L-15.706,1.754L-15.702,1.813L-15.689,1.945L-15.706,2.085L-15.664,2.218L-15.662,2.259L-15.685,2.297L-15.68,2.331L-15.643,2.367L-15.504,2.454L-15.372,2.589L-15.222,2.684L-15.085,2.745L-15,2.749L-14.856,2.859L-14.578,2.937L-14.489,2.964L-14.427,3.009L-14.38,3.061L-14.375,3.117L-14.416,3.144L-14.471,3.219L-14.49,3.31L-14.533,3.333L-14.577,3.335L-14.608,3.362L-14.598,3.581L-14.56,3.619L-14.501,3.653L-14.39,3.687L-14.279,3.737L-14.279,3.777L-14.298,3.819L-14.435,3.836L-14.537,3.843L-14.583,3.861L-14.575,3.937L-14.282,4.016L-14.148,4.091L-14.074,4.188L-13.886,4.252L-13.585,4.284L-13.371,4.384L-13.245,4.552L-13.056,4.512L-12.804,4.262L-12.548,4.197L-12.285,4.317L-12.14,4.415L-12.112,4.492L-12.169,4.523L-12.313,4.508L-12.428,4.556L-12.513,4.665L-12.52,4.782L-12.449,4.906L-12.354,4.992L-12.234,5.039L-12.167,5.104L-12.155,5.186L-12.123,5.209L-11.993,5.301L-11.682,5.447L-11.528,5.553L-11.532,5.62L-11.598,5.685L-11.725,5.749L-11.797,5.834L-11.812,5.939L-11.788,6.014L-11.693,6.078L-11.154,5.993L-10.6,6.037L-9.85,6.181L-9.356,6.231L-8.997,6.165L-8.317,6.285L-7.683,6.398L-7.08,6.431L-6.749,6.343L-6.521,6.224L-6.334,6.001L-5.853,5.706L-5.379,5.54L-4.752,5.406L-4.331,5.361L-4.267,5.406L-3.704,5.677L-3.463,5.678L-3.264,5.726L-3.187,5.798L-3.137,5.816L-2.883,5.749L-2.756,5.897L-2.559,6.104L-2.244,6.211L-1.966,6.272L-1.879,6.281L-1.591,6.277L-1.592,6.158L-1.505,5.756L-1.586,5.084L-1.505,4.914L-1.259,4.63L-1.208,4.481L-1.35,4.502L-1.345,4.421L-1.293,4.347L-1.304,4.175L-1.272,4.103L-1.185,3.973L-1.267,3.738L-1.207,3.636L-1.123,3.577L-0.917,3.615L-0.992,3.722L-0.943,3.84L-0.909,3.997L-0.959,4.086L-0.074,3.9L-0.003,3.744L0.037,3.606L0.079,3.053L0.089,2.963L0.106,2.818L0,2.701Z" style="fill:white;stroke:rgb(0,184,187);stroke-width:0.04px;"/>
                </g>
                <g transform="matrix(13.7427,0,0,3.319,1345.24,83.6768)">
                    <path d="M0,5.537L-0.099,5.309L-0.172,5.228L-0.225,5.173L-0.197,5.122L-0.149,5.107L-0.089,5.1L-0.018,5.045L-0.039,4.986L-0.238,4.84L-0.327,4.728L-0.475,4.44L-0.754,4.141L-0.842,4.045L-0.861,3.953L-0.83,3.862L-0.874,3.746L-0.976,3.598L-1.103,3.381L-1.109,3.186L-1.055,3.074L-0.988,2.973L-1.03,2.822L-0.972,2.623L-0.98,2.479L-1.017,2.416L-1.082,2.344L-1.251,2.265L-1.328,2.202L-1.555,2.119L-1.782,2.015L-1.824,1.952L-1.817,1.909L-1.783,1.842L-1.631,1.649L-1.464,1.462L-1.354,1.386L-0.76,1.146L-0.672,1.062L-0.659,0.92L-0.666,0.817L-0.692,0.633L-0.75,0.372L-0.811,0.192L-0.955,-0.145L-1.328,-0.842L-1.576,-1.564L-1.591,-1.605L-1.59,-1.704L-1.605,-1.859L-1.662,-1.995L-1.81,-2.116L-1.962,-2.2L-2.154,-2.287L-2.294,-2.325L-2.37,-2.335L-2.391,-2.385L-2.422,-2.428L-2.489,-2.466L-2.63,-2.517L-2.747,-2.529L-2.836,-2.446L-2.892,-2.432L-3.826,-2.453L-4.713,-2.488L-5.532,-2.52L-6.322,-2.551L-7.079,-2.581L-7.55,-2.609L-8.015,-2.637L-8.082,-2.662L-8.153,-2.611L-8.4,-2.508L-9.11,-2.429L-9.343,-2.473L-9.626,-2.603L-9.771,-2.776L-10.044,-3.265L-9.936,-3.258L-9.636,-3.097L-9.432,-3.03L-9.504,-3.138L-9.883,-3.317L-10.239,-3.462L-10.631,-3.457L-11.03,-3.417L-11.981,-3.233L-12.395,-3.069L-12.591,-2.952L-13.126,-2.862L-13.422,-2.615L-13.554,-2.456L-13.64,-2.396L-13.725,-2.306L-13.961,-2.255L-14.197,-2.229L-15.204,-1.988L-16.147,-1.73L-16.693,-1.532L-16.918,-1.547L-16.982,-1.586L-17.002,-1.52L-16.974,-1.418L-16.746,-1.392L-16.399,-1.317L-16.385,-1.169L-16.404,-1.072L-16.37,-1.005L-16.348,-0.927L-16.51,-0.996L-16.893,-1.119L-16.88,-1.071L-16.853,-0.896L-16.819,-0.752L-16.614,-0.172L-16.614,-0.03L-16.616,0.008L-16.682,0.206L-16.805,0.374L-16.97,0.468L-17.059,0.574L-17.074,0.69L-16.861,0.894L-16.418,1.186L-16.236,1.435L-16.314,1.643L-16.337,1.796L-16.302,1.893L-16.23,1.971L-16.121,2.03L-16.076,2.121L-16.095,2.244L-16.072,2.329L-15.99,2.39L-15.997,2.413L-16.034,2.499L-16.085,2.655L-16.113,2.769L-16.233,2.924L-16.193,3.056L-16.092,3.211L-16.017,3.29L-15.992,3.364L-16.035,3.54L-16.011,3.585L-15.701,3.715L-15.649,3.775L-15.617,3.9L-15.503,4.168L-15.584,4.507L-15.659,4.693L-15.828,4.988L-15.836,5.015L-15.689,5.01L-15.542,4.956L-15.532,4.868L-15.545,4.704L-15.53,4.681L-15.304,4.727L-15.077,4.801L-15.041,4.963L-14.979,5.044L-14.906,5.117L-14.836,5.15L-14.718,5.156L-14.409,5.253L-14.261,5.272L-14.109,5.339L-13.979,5.408L-13.886,5.422L-13.841,5.497L-13.782,5.549L-13.683,5.509L-13.317,5.454L-13.182,5.528L-13.09,5.606L-13.077,5.631L-13.122,5.7L-13.142,5.753L-13.18,5.789L-13.305,5.826L-13.374,5.888L-13.424,5.954L-13.388,6.018L-13.283,6.066L-13.209,6.077L-13.18,6.124L-12.939,6.334L-12.744,6.607L-12.67,6.65L-12.602,6.66L-12.524,6.62L-12.436,6.531L-12.33,6.467L-12.239,6.434L-12.081,6.358L-12.076,6.309L-12.216,6.124L-12.299,5.974L-12.282,5.947L-12.109,5.971L-11.814,6.053L-11.355,6.32L-11.274,6.32L-11.117,6.3L-10.948,6.256L-10.869,6.206L-10.837,6.225L-10.806,6.372L-10.847,6.452L-11.05,6.53L-11.036,6.569L-10.982,6.619L-10.888,6.653L-10.773,6.748L-10.691,6.857L-10.622,6.907L-10.546,6.931L-10.362,6.873L-10.311,6.827L-10.289,6.795L-10.252,6.802L-10.185,6.856L-10.164,6.887L-9.98,6.948L-9.872,7.022L-9.804,7.058L-9.732,7.023L-9.442,7.083L-9.361,7.133L-9.332,7.216L-9.344,7.266L-9.294,7.396L-8.917,7.709L-8.872,7.869L-8.864,7.933L-8.681,7.96L-8.643,8.069L-8.619,8.182L-8.309,8.174L-8.146,7.932L-8.058,7.902L-7.918,7.818L-7.826,7.744L-7.758,7.79L-7.657,7.946L-7.551,8.071L-7.491,8.121L-7.483,8.159L-7.423,8.182L-7.309,8.196L-7.232,8.234L-7.204,8.351L-7.198,8.456L-7.229,8.532L-7.245,8.599L-7.165,8.625L-7.051,8.6L-6.972,8.562L-6.724,8.649L-6.648,8.455L-6.556,8.355L-6.433,8.309L-6.323,8.249L-6.221,8.206L-6.149,8.208L-6.119,8.19L-6.03,8.195L-5.926,8.215L-5.787,8.192L-5.59,8.239L-5.464,8.329L-5.344,8.359L-5.209,8.354L-5.119,8.304L-4.993,8.134L-4.896,8.137L-4.745,8.11L-4.529,8.111L-4.03,8.148L-3.901,8.213L-3.591,8.297L-3.451,8.393L-3.385,8.508L-3.35,8.588L-3.028,8.711L-2.553,8.867L-2.439,8.886L-2.368,8.876L-2.154,8.957L-1.965,8.999L-1.916,8.959L-1.898,8.907L-1.909,8.867L-2.066,8.748L-2.165,8.671L-2.173,8.625L-2.146,8.52L-2.135,8.402L-2.165,8.274L-2.285,7.992L-2.312,7.872L-2.224,7.726L-1.929,7.378L-1.832,7.248L-1.699,7.09L-1.334,6.714L-1.102,6.495L-0.944,6.374L-0.715,6.163L-0.615,6.055L-0.175,5.984L-0.127,5.882L-0.054,5.771L0.006,5.724L0,5.537Z" style="fill:white;stroke:rgb(0,184,187);stroke-width:0.04px;"/>
                </g>
                <g transform="matrix(13.7427,0,0,3.319,1321.31,132.907)">
                    <path d="M0,-3.521L-0.022,-3.601L-0.007,-3.672L-0.048,-3.739L-0.146,-3.815L-0.171,-3.847L-0.287,-3.841L-0.319,-3.834L-0.331,-3.836L-0.498,-3.9L-0.615,-4.056L-0.787,-4.139L-0.916,-4.167L-0.978,-4.233L-1.02,-4.322L-1.064,-4.389L-1.069,-4.395L-1.102,-4.497L-1.142,-4.507L-1.149,-4.51L-1.313,-4.492L-1.347,-4.466L-1.936,-4.346L-2.016,-4.364L-2.101,-4.434L-2.149,-4.484L-2.178,-4.521L-2.236,-4.62L-2.308,-4.69L-2.412,-4.747L-2.508,-4.813L-2.627,-4.815L-2.944,-4.722L-3.166,-4.712L-3.317,-4.742L-3.518,-4.798L-3.905,-4.807L-4.167,-4.758L-4.189,-4.688L-4.412,-4.253L-4.76,-4.092L-5.061,-3.928L-5.149,-3.894L-5.305,-3.946L-5.485,-4.044L-5.632,-4.095L-5.737,-4.072L-5.848,-3.962L-5.896,-3.849L-6.242,-3.767L-6.849,-3.719L-7.056,-3.608L-7.124,-3.475L-7.123,-3.373L-7.068,-3.286L-7.129,-3.185L-7.155,-3.143L-7.585,-3.121L-8.159,-3.091L-8.502,-3.099L-8.826,-3.106L-9.049,-3.193L-9.323,-3.362L-9.614,-3.588L-9.642,-3.593L-9.684,-3.617L-9.863,-3.634L-9.91,-3.621L-10.008,-3.528L-10.024,-3.391L-10.087,-3.33L-10.102,-3.252L-10.072,-3.181L-10.07,-3.092L-10.03,-2.969L-10.191,-2.942L-10.384,-2.947L-10.452,-2.939L-10.516,-2.906L-10.583,-2.923L-10.76,-3.038L-10.859,-3.063L-10.929,-3.056L-10.979,-3.006L-11.067,-2.942L-11.149,-2.897L-11.129,-2.857L-10.766,-2.754L-10.697,-2.594L-10.763,-2.465L-10.784,-2.401L-10.868,-2.351L-10.97,-2.307L-11.095,-2.296L-11.108,-2.226L-11.053,-2.02L-11.092,-1.976L-11.13,-1.912L-11.088,-1.742L-11.01,-1.73L-10.992,-1.692L-11.004,-1.623L-11.015,-1.55L-11.041,-1.473L-11.053,-1.439L-11.104,-1.417L-11.265,-1.429L-11.402,-1.363L-11.675,-1.125L-11.341,-1.112L-11.296,-1.048L-11.276,-0.949L-11.243,-0.816L-11.186,-0.779L-11.154,-0.727L-11.158,-0.635L-11.091,-0.567L-10.933,-0.381L-10.913,-0.333L-10.818,-0.3L-10.502,-0.15L-10.281,0.018L-10.155,0.204L-9.988,0.349L-9.78,0.451L-9.613,0.59L-9.488,0.765L-9.316,0.863L-9.1,0.885L-8.961,0.945L-8.9,1.043L-8.78,1.133L-8.6,1.213L-8.323,1.257L-7.795,1.267L-7.748,1.269L-7.628,1.294L-7.49,1.263L-7.323,1.2L-7.27,1.163L-7.099,0.958L-7,0.976L-6.806,0.951L-6.689,0.905L-6.68,0.905L-6.641,0.906L-6.489,0.845L-6.435,0.795L-6.404,0.736L-6.368,0.722L-6.262,0.785L-6.152,0.791L-6.031,0.751L-5.942,0.695L-5.834,0.648L-5.785,0.617L-5.724,0.567L-5.602,0.419L-5.458,0.388L-5.261,0.426L-5.05,0.439L-4.894,0.405L-4.493,0.448L-4.406,0.482L-4.349,0.52L-4.283,0.467L-3.887,0.393L-3.699,0.466L-3.617,0.44L-3.538,0.38L-3.496,0.333L-3.49,0.283L-3.453,0.22L-3.32,0.191L-2.962,0.229L-2.823,0.142L-2.772,0.094L-2.745,-0.012L-2.712,-0.096L-2.587,-0.142L-2.593,-0.219L-2.617,-0.303L-2.552,-0.491L-2.511,-0.568L-2.441,-0.596L-2.357,-0.655L-2.213,-0.778L-2.253,-0.886L-2.227,-0.965L-2.08,-1.158L-1.971,-1.345L-1.978,-1.438L-1.965,-1.52L-1.864,-1.609L-1.759,-1.725L-1.633,-2.089L-1.584,-2.15L-1.492,-2.219L-1.425,-2.288L-1.43,-2.527L-1.367,-2.596L-1.243,-2.673L-1.123,-2.798L-1.028,-2.945L-0.952,-3.013L-0.847,-3.032L-0.736,-3.089L-0.609,-3.111L-0.483,-3.083L-0.405,-3.097L-0.29,-3.169L-0.002,-3.439L0.037,-3.492L0,-3.521Z" style="fill:white;stroke:rgb(0,184,187);stroke-width:0.04px;"/>
                </g>
                <g transform="matrix(13.7427,0,0,3.319,1223.32,106.011)">
                    <path d="M0,1.14L-0.045,0.98L-0.423,0.667L-0.472,0.537L-0.46,0.487L-0.489,0.404L-0.57,0.354L-0.86,0.294L-0.932,0.328L-1.001,0.293L-1.108,0.219L-1.292,0.158L-1.313,0.126L-1.38,0.073L-1.417,0.066L-1.439,0.098L-1.49,0.144L-1.674,0.202L-1.75,0.178L-1.82,0.128L-1.901,0.019L-2.016,-0.076L-2.11,-0.11L-2.165,-0.16L-2.178,-0.199L-1.976,-0.277L-1.934,-0.357L-1.966,-0.504L-1.997,-0.523L-2.076,-0.473L-2.246,-0.429L-2.403,-0.409L-2.483,-0.409L-2.942,-0.676L-3.237,-0.758L-3.41,-0.782L-3.428,-0.755L-3.345,-0.605L-3.204,-0.42L-3.209,-0.371L-3.368,-0.295L-3.458,-0.262L-3.564,-0.198L-3.652,-0.109L-3.73,-0.069L-3.799,-0.079L-3.873,-0.122L-4.068,-0.396L-4.308,-0.605L-4.337,-0.652L-4.411,-0.663L-4.516,-0.711L-4.553,-0.775L-4.503,-0.842L-4.433,-0.903L-4.308,-0.941L-4.271,-0.976L-4.25,-1.029L-4.205,-1.098L-4.218,-1.123L-4.31,-1.201L-4.445,-1.275L-4.811,-1.22L-4.911,-1.18L-4.969,-1.232L-5.014,-1.307L-5.108,-1.321L-5.237,-1.39L-5.39,-1.457L-5.538,-1.477L-5.847,-1.574L-5.965,-1.579L-6.034,-1.612L-6.107,-1.685L-6.169,-1.766L-6.205,-1.928L-6.432,-2.002L-6.658,-2.049L-6.673,-2.025L-6.66,-1.861L-6.67,-1.773L-6.817,-1.719L-6.964,-1.714L-6.983,-1.678L-7.035,-1.626L-7.108,-1.618L-7.22,-1.657L-7.297,-1.706L-7.282,-1.834L-7.331,-1.842L-7.393,-1.921L-7.418,-2.005L-7.484,-2.039L-7.723,-2.074L-7.804,-2.099L-7.866,-2.081L-7.911,-2.022L-7.88,-1.968L-7.835,-1.916L-7.702,-1.833L-7.715,-1.8L-7.998,-1.719L-8.175,-1.636L-8.341,-1.589L-8.51,-1.503L-8.844,-1.407L-9.09,-1.381L-9.141,-1.356L-9.231,-1.192L-9.292,-1.158L-9.352,-1.175L-9.398,-1.202L-9.455,-1.18L-9.514,-1.126L-9.576,-1.104L-9.63,-1.105L-9.724,-0.962L-10.005,-0.919L-10.037,-0.844L-10.088,-0.758L-10.129,-0.737L-10.256,-0.771L-10.432,-0.79L-10.532,-0.743L-10.653,-0.717L-10.8,-0.709L-10.964,-0.615L-11.123,-0.449L-11.213,-0.303L-11.261,-0.251L-11.341,-0.388L-11.438,-0.482L-11.506,-0.531L-11.567,-0.531L-11.583,-0.511L-11.583,-0.439L-11.517,-0.32L-11.436,-0.239L-11.422,-0.178L-11.378,-0.069L-11.26,0.05L-11.075,0.145L-10.949,0.239L-10.854,0.368L-10.853,0.408L-10.878,0.461L-10.922,0.511L-10.959,0.576L-11.06,0.707L-11.029,0.764L-10.945,0.837L-10.87,0.924L-10.773,1.065L-10.64,1.312L-10.555,1.413L-10.439,1.518L-10.326,1.598L-10.148,1.596L-9.963,1.749L-9.759,1.97L-9.608,2.072L-9.502,2.103L-9.415,2.183L-9.336,2.297L-9.305,2.364L-9.237,2.412L-9.052,2.403L-8.813,2.584L-8.664,2.716L-8.586,2.823L-8.536,2.838L-8.395,2.908L-8.283,2.985L-8.175,3.181L-7.931,3.234L-7.624,3.239L-7.516,3.151L-7.417,3.131L-7.303,3.158L-7.065,3.189L-7.042,3.03L-6.908,2.866L-6.847,2.807L-6.673,2.813L-6.633,2.69L-6.598,2.35L-6.562,2.313L-6.435,2.32L-6.308,2.382L-6.269,2.432L-6.204,2.428L-6.113,2.394L-6.013,2.372L-5.854,2.408L-5.511,2.563L-5.335,2.619L-5.224,2.608L-5.12,2.61L-4.714,2.849L-4.433,2.883L-4.178,2.884L-4.098,2.812L-3.99,2.751L-3.877,2.759L-3.777,2.79L-3.581,2.894L-3.491,2.921L-3.372,2.938L-3.284,2.961L-3.201,3.141L-3.157,3.189L-3.106,3.019L-2.979,2.793L-2.858,2.661L-2.769,2.618L-2.58,2.657L-2.259,2.69L-2.013,2.66L-1.787,2.559L-1.666,2.471L-1.562,2.378L-1.529,2.318L-1.483,2.289L-1.295,2.236L-1.237,2.173L-1.217,2.055L-1.205,1.924L-1.17,1.826L-1.124,1.755L-0.78,1.583L-0.751,1.523L-0.697,1.464L-0.596,1.399L-0.499,1.304L-0.395,1.246L-0.258,1.252L-0.132,1.24L-0.035,1.207L0.008,1.204L0,1.14Z" style="fill:white;stroke:rgb(0,184,187);stroke-width:0.04px;"/>
                </g>
                <g transform="matrix(0.433248,0,0,0.0892643,-1900.83,-181.31)">
                    <g opacity="0.6">
                        <g transform="matrix(0.486611,0,0,0.486611,3898.1,2675.02)">
                            <circle cx="7557.5" cy="2057.5" r="37.5" style="fill:rgb(25,191,194);"/>
                        </g>
                        <g transform="matrix(0.486611,0,0,0.486611,3946.76,2675.02)">
                            <circle cx="7557.5" cy="2057.5" r="37.5" style="fill:rgb(25,191,194);"/>
                        </g>
                        <g transform="matrix(0.486611,0,0,0.486611,3898.1,2431.71)">
                            <circle cx="7557.5" cy="2057.5" r="37.5" style="fill:rgb(25,191,194);"/>
                        </g>
                        <g transform="matrix(0.486611,0,0,0.486611,3946.76,2431.71)">
                            <circle cx="7557.5" cy="2057.5" r="37.5" style="fill:rgb(25,191,194);"/>
                        </g>
                        <g transform="matrix(0.486611,0,0,0.486611,3898.1,2626.36)">
                            <circle cx="7557.5" cy="2057.5" r="37.5" style="fill:rgb(25,191,194);"/>
                        </g>
                        <g transform="matrix(0.486611,0,0,0.486611,3946.76,2626.36)">
                            <circle cx="7557.5" cy="2057.5" r="37.5" style="fill:rgb(25,191,194);"/>
                        </g>
                        <g transform="matrix(0.486611,0,0,0.486611,3898.1,2383.05)">
                            <circle cx="7557.5" cy="2057.5" r="37.5" style="fill:rgb(25,191,194);"/>
                        </g>
                        <g transform="matrix(0.486611,0,0,0.486611,3946.76,2383.05)">
                            <circle cx="7557.5" cy="2057.5" r="37.5" style="fill:rgb(25,191,194);"/>
                        </g>
                        <g transform="matrix(0.486611,0,0,0.486611,3898.1,2577.7)">
                            <circle cx="7557.5" cy="2057.5" r="37.5" style="fill:rgb(25,191,194);"/>
                        </g>
                        <g transform="matrix(0.486611,0,0,0.486611,3946.76,2577.7)">
                            <circle cx="7557.5" cy="2057.5" r="37.5" style="fill:rgb(25,191,194);"/>
                        </g>
                        <g transform="matrix(0.486611,0,0,0.486611,3898.1,2334.39)">
                            <circle cx="7557.5" cy="2057.5" r="37.5" style="fill:rgb(25,191,194);"/>
                        </g>
                        <g transform="matrix(0.486611,0,0,0.486611,3946.76,2334.39)">
                            <circle cx="7557.5" cy="2057.5" r="37.5" style="fill:rgb(25,191,194);"/>
                        </g>
                        <g transform="matrix(0.486611,0,0,0.486611,3898.1,2529.04)">
                            <circle cx="7557.5" cy="2057.5" r="37.5" style="fill:rgb(25,191,194);"/>
                        </g>
                        <g transform="matrix(0.486611,0,0,0.486611,3946.76,2529.04)">
                            <circle cx="7557.5" cy="2057.5" r="37.5" style="fill:rgb(25,191,194);"/>
                        </g>
                        <g transform="matrix(0.486611,0,0,0.486611,3898.1,2285.73)">
                            <circle cx="7557.5" cy="2057.5" r="37.5" style="fill:rgb(25,191,194);"/>
                        </g>
                        <g transform="matrix(0.486611,0,0,0.486611,3946.76,2285.73)">
                            <circle cx="7557.5" cy="2057.5" r="37.5" style="fill:rgb(25,191,194);"/>
                        </g>
                        <g transform="matrix(0.486611,0,0,0.486611,3898.1,2480.37)">
                            <circle cx="7557.5" cy="2057.5" r="37.5" style="fill:rgb(25,191,194);"/>
                        </g>
                        <g transform="matrix(0.486611,0,0,0.486611,3946.76,2480.37)">
                            <circle cx="7557.5" cy="2057.5" r="37.5" style="fill:rgb(25,191,194);"/>
                        </g>
                        <g transform="matrix(0.486611,0,0,0.486611,3898.1,2237.07)">
                            <circle cx="7557.5" cy="2057.5" r="37.5" style="fill:rgb(25,191,194);"/>
                        </g>
                        <g transform="matrix(0.486611,0,0,0.486611,3946.76,2237.07)">
                            <circle cx="7557.5" cy="2057.5" r="37.5" style="fill:rgb(25,191,194);"/>
                        </g>
                        <g transform="matrix(0.486611,0,0,0.486611,3849.44,2675.02)">
                            <circle cx="7557.5" cy="2057.5" r="37.5" style="fill:rgb(25,191,194);"/>
                        </g>
                        <g transform="matrix(0.486611,0,0,0.486611,3849.44,2431.71)">
                            <circle cx="7557.5" cy="2057.5" r="37.5" style="fill:rgb(25,191,194);"/>
                        </g>
                        <g transform="matrix(0.486611,0,0,0.486611,3654.79,2675.02)">
                            <circle cx="7557.5" cy="2057.5" r="37.5" style="fill:rgb(25,191,194);"/>
                        </g>
                        <g transform="matrix(0.486611,0,0,0.486611,3654.79,2431.71)">
                            <circle cx="7557.5" cy="2057.5" r="37.5" style="fill:rgb(25,191,194);"/>
                        </g>
                        <g transform="matrix(0.486611,0,0,0.486611,3849.44,2626.36)">
                            <circle cx="7557.5" cy="2057.5" r="37.5" style="fill:rgb(25,191,194);"/>
                        </g>
                        <g transform="matrix(0.486611,0,0,0.486611,3849.44,2383.05)">
                            <circle cx="7557.5" cy="2057.5" r="37.5" style="fill:rgb(25,191,194);"/>
                        </g>
                        <g transform="matrix(0.486611,0,0,0.486611,3654.79,2626.36)">
                            <circle cx="7557.5" cy="2057.5" r="37.5" style="fill:rgb(25,191,194);"/>
                        </g>
                        <g transform="matrix(0.486611,0,0,0.486611,3654.79,2383.05)">
                            <circle cx="7557.5" cy="2057.5" r="37.5" style="fill:rgb(25,191,194);"/>
                        </g>
                        <g transform="matrix(0.486611,0,0,0.486611,3849.44,2577.7)">
                            <circle cx="7557.5" cy="2057.5" r="37.5" style="fill:rgb(25,191,194);"/>
                        </g>
                        <g transform="matrix(0.486611,0,0,0.486611,3849.44,2334.39)">
                            <circle cx="7557.5" cy="2057.5" r="37.5" style="fill:rgb(25,191,194);"/>
                        </g>
                        <g transform="matrix(0.486611,0,0,0.486611,3654.79,2577.7)">
                            <circle cx="7557.5" cy="2057.5" r="37.5" style="fill:rgb(25,191,194);"/>
                        </g>
                        <g transform="matrix(0.486611,0,0,0.486611,3654.79,2334.39)">
                            <circle cx="7557.5" cy="2057.5" r="37.5" style="fill:rgb(25,191,194);"/>
                        </g>
                        <g transform="matrix(0.486611,0,0,0.486611,3849.44,2529.04)">
                            <circle cx="7557.5" cy="2057.5" r="37.5" style="fill:rgb(25,191,194);"/>
                        </g>
                        <g transform="matrix(0.486611,0,0,0.486611,3849.44,2285.73)">
                            <circle cx="7557.5" cy="2057.5" r="37.5" style="fill:rgb(25,191,194);"/>
                        </g>
                        <g transform="matrix(0.486611,0,0,0.486611,3654.79,2529.04)">
                            <circle cx="7557.5" cy="2057.5" r="37.5" style="fill:rgb(25,191,194);"/>
                        </g>
                        <g transform="matrix(0.486611,0,0,0.486611,3654.79,2285.73)">
                            <circle cx="7557.5" cy="2057.5" r="37.5" style="fill:rgb(25,191,194);"/>
                        </g>
                        <g transform="matrix(0.486611,0,0,0.486611,3849.44,2480.37)">
                            <circle cx="7557.5" cy="2057.5" r="37.5" style="fill:rgb(25,191,194);"/>
                        </g>
                        <g transform="matrix(0.486611,0,0,0.486611,3849.44,2237.07)">
                            <circle cx="7557.5" cy="2057.5" r="37.5" style="fill:rgb(25,191,194);"/>
                        </g>
                        <g transform="matrix(0.486611,0,0,0.486611,3654.79,2480.37)">
                            <circle cx="7557.5" cy="2057.5" r="37.5" style="fill:rgb(25,191,194);"/>
                        </g>
                        <g transform="matrix(0.486611,0,0,0.486611,3654.79,2237.07)">
                            <circle cx="7557.5" cy="2057.5" r="37.5" style="fill:rgb(25,191,194);"/>
                        </g>
                        <g transform="matrix(0.486611,0,0,0.486611,3800.77,2675.02)">
                            <circle cx="7557.5" cy="2057.5" r="37.5" style="fill:rgb(25,191,194);"/>
                        </g>
                        <g transform="matrix(0.486611,0,0,0.486611,3800.77,2431.71)">
                            <circle cx="7557.5" cy="2057.5" r="37.5" style="fill:rgb(25,191,194);"/>
                        </g>
                        <g transform="matrix(0.486611,0,0,0.486611,3606.13,2675.02)">
                            <circle cx="7557.5" cy="2057.5" r="37.5" style="fill:rgb(25,191,194);"/>
                        </g>
                        <g transform="matrix(0.486611,0,0,0.486611,3606.13,2431.71)">
                            <circle cx="7557.5" cy="2057.5" r="37.5" style="fill:rgb(25,191,194);"/>
                        </g>
                        <g transform="matrix(0.486611,0,0,0.486611,3800.77,2626.36)">
                            <circle cx="7557.5" cy="2057.5" r="37.5" style="fill:rgb(25,191,194);"/>
                        </g>
                        <g transform="matrix(0.486611,0,0,0.486611,3800.77,2383.05)">
                            <circle cx="7557.5" cy="2057.5" r="37.5" style="fill:rgb(25,191,194);"/>
                        </g>
                        <g transform="matrix(0.486611,0,0,0.486611,3606.13,2626.36)">
                            <circle cx="7557.5" cy="2057.5" r="37.5" style="fill:rgb(25,191,194);"/>
                        </g>
                        <g transform="matrix(0.486611,0,0,0.486611,3606.13,2383.05)">
                            <circle cx="7557.5" cy="2057.5" r="37.5" style="fill:rgb(25,191,194);"/>
                        </g>
                        <g transform="matrix(0.486611,0,0,0.486611,3800.77,2577.7)">
                            <circle cx="7557.5" cy="2057.5" r="37.5" style="fill:rgb(25,191,194);"/>
                        </g>
                        <g transform="matrix(0.486611,0,0,0.486611,3800.77,2334.39)">
                            <circle cx="7557.5" cy="2057.5" r="37.5" style="fill:rgb(25,191,194);"/>
                        </g>
                        <g transform="matrix(0.486611,0,0,0.486611,3606.13,2577.7)">
                            <circle cx="7557.5" cy="2057.5" r="37.5" style="fill:rgb(25,191,194);"/>
                        </g>
                        <g transform="matrix(0.486611,0,0,0.486611,3606.13,2334.39)">
                            <circle cx="7557.5" cy="2057.5" r="37.5" style="fill:rgb(25,191,194);"/>
                        </g>
                        <g transform="matrix(0.486611,0,0,0.486611,3800.77,2529.04)">
                            <circle cx="7557.5" cy="2057.5" r="37.5" style="fill:rgb(25,191,194);"/>
                        </g>
                        <g transform="matrix(0.486611,0,0,0.486611,3800.77,2285.73)">
                            <circle cx="7557.5" cy="2057.5" r="37.5" style="fill:rgb(25,191,194);"/>
                        </g>
                        <g transform="matrix(0.486611,0,0,0.486611,3606.13,2529.04)">
                            <circle cx="7557.5" cy="2057.5" r="37.5" style="fill:rgb(25,191,194);"/>
                        </g>
                        <g transform="matrix(0.486611,0,0,0.486611,3606.13,2285.73)">
                            <circle cx="7557.5" cy="2057.5" r="37.5" style="fill:rgb(25,191,194);"/>
                        </g>
                        <g transform="matrix(0.486611,0,0,0.486611,3800.77,2480.37)">
                            <circle cx="7557.5" cy="2057.5" r="37.5" style="fill:rgb(25,191,194);"/>
                        </g>
                        <g transform="matrix(0.486611,0,0,0.486611,3800.77,2237.07)">
                            <circle cx="7557.5" cy="2057.5" r="37.5" style="fill:rgb(25,191,194);"/>
                        </g>
                        <g transform="matrix(0.486611,0,0,0.486611,3606.13,2480.37)">
                            <circle cx="7557.5" cy="2057.5" r="37.5" style="fill:rgb(25,191,194);"/>
                        </g>
                        <g transform="matrix(0.486611,0,0,0.486611,3606.13,2237.07)">
                            <circle cx="7557.5" cy="2057.5" r="37.5" style="fill:rgb(25,191,194);"/>
                        </g>
                        <g transform="matrix(0.486611,0,0,0.486611,3752.11,2675.02)">
                            <circle cx="7557.5" cy="2057.5" r="37.5" style="fill:rgb(25,191,194);"/>
                        </g>
                        <g transform="matrix(0.486611,0,0,0.486611,3752.11,2431.71)">
                            <circle cx="7557.5" cy="2057.5" r="37.5" style="fill:rgb(25,191,194);"/>
                        </g>
                        <g transform="matrix(0.486611,0,0,0.486611,3557.47,2431.71)">
                            <circle cx="7557.5" cy="2057.5" r="37.5" style="fill:rgb(25,191,194);"/>
                        </g>
                        <g transform="matrix(0.486611,0,0,0.486611,3752.11,2626.36)">
                            <circle cx="7557.5" cy="2057.5" r="37.5" style="fill:rgb(25,191,194);"/>
                        </g>
                        <g transform="matrix(0.486611,0,0,0.486611,3752.11,2383.05)">
                            <circle cx="7557.5" cy="2057.5" r="37.5" style="fill:rgb(25,191,194);"/>
                        </g>
                        <g transform="matrix(0.486611,0,0,0.486611,3557.47,2383.05)">
                            <circle cx="7557.5" cy="2057.5" r="37.5" style="fill:rgb(25,191,194);"/>
                        </g>
                        <g transform="matrix(0.486611,0,0,0.486611,3752.11,2577.7)">
                            <circle cx="7557.5" cy="2057.5" r="37.5" style="fill:rgb(25,191,194);"/>
                        </g>
                        <g transform="matrix(0.486611,0,0,0.486611,3752.11,2334.39)">
                            <circle cx="7557.5" cy="2057.5" r="37.5" style="fill:rgb(25,191,194);"/>
                        </g>
                        <g transform="matrix(0.486611,0,0,0.486611,3557.47,2577.7)">
                            <circle cx="7557.5" cy="2057.5" r="37.5" style="fill:rgb(25,191,194);"/>
                        </g>
                        <g transform="matrix(0.486611,0,0,0.486611,3557.47,2626.36)">
                            <circle cx="7557.5" cy="2057.5" r="37.5" style="fill:rgb(25,191,194);"/>
                        </g>
                        <g transform="matrix(0.486611,0,0,0.486611,3557.47,2675.02)">
                            <circle cx="7557.5" cy="2057.5" r="37.5" style="fill:rgb(25,191,194);"/>
                        </g>
                        <g transform="matrix(0.486611,0,0,0.486611,3557.47,2334.39)">
                            <circle cx="7557.5" cy="2057.5" r="37.5" style="fill:rgb(25,191,194);"/>
                        </g>
                        <g transform="matrix(0.486611,0,0,0.486611,3752.11,2529.04)">
                            <circle cx="7557.5" cy="2057.5" r="37.5" style="fill:rgb(25,191,194);"/>
                        </g>
                        <g transform="matrix(0.486611,0,0,0.486611,3752.11,2285.73)">
                            <circle cx="7557.5" cy="2057.5" r="37.5" style="fill:rgb(25,191,194);"/>
                        </g>
                        <g transform="matrix(0.486611,0,0,0.486611,3557.47,2529.04)">
                            <circle cx="7557.5" cy="2057.5" r="37.5" style="fill:rgb(25,191,194);"/>
                        </g>
                        <g transform="matrix(0.486611,0,0,0.486611,3557.47,2285.73)">
                            <circle cx="7557.5" cy="2057.5" r="37.5" style="fill:rgb(25,191,194);"/>
                        </g>
                        <g transform="matrix(0.486611,0,0,0.486611,3752.11,2480.37)">
                            <circle cx="7557.5" cy="2057.5" r="37.5" style="fill:rgb(25,191,194);"/>
                        </g>
                        <g transform="matrix(0.486611,0,0,0.486611,3752.11,2237.07)">
                            <circle cx="7557.5" cy="2057.5" r="37.5" style="fill:rgb(25,191,194);"/>
                        </g>
                        <g transform="matrix(0.486611,0,0,0.486611,3557.47,2480.37)">
                            <circle cx="7557.5" cy="2057.5" r="37.5" style="fill:rgb(25,191,194);"/>
                        </g>
                        <g transform="matrix(0.486611,0,0,0.486611,3557.47,2237.07)">
                            <circle cx="7557.5" cy="2057.5" r="37.5" style="fill:rgb(25,191,194);"/>
                        </g>
                        <g transform="matrix(0.486611,0,0,0.486611,3703.45,2675.02)">
                            <circle cx="7557.5" cy="2057.5" r="37.5" style="fill:rgb(25,191,194);"/>
                        </g>
                        <g transform="matrix(0.486611,0,0,0.486611,3703.45,2431.71)">
                            <circle cx="7557.5" cy="2057.5" r="37.5" style="fill:rgb(25,191,194);"/>
                        </g>
                        <g transform="matrix(0.486611,0,0,0.486611,3508.81,2431.71)">
                            <circle cx="7557.5" cy="2057.5" r="37.5" style="fill:rgb(25,191,194);"/>
                        </g>
                        <g transform="matrix(0.486611,0,0,0.486611,3460.15,2431.71)">
                            <circle cx="7557.5" cy="2057.5" r="37.5" style="fill:rgb(25,191,194);"/>
                        </g>
                        <g transform="matrix(0.486611,0,0,0.486611,3703.45,2626.36)">
                            <circle cx="7557.5" cy="2057.5" r="37.5" style="fill:rgb(25,191,194);"/>
                        </g>
                        <g transform="matrix(0.486611,0,0,0.486611,3703.45,2383.05)">
                            <circle cx="7557.5" cy="2057.5" r="37.5" style="fill:rgb(25,191,194);"/>
                        </g>
                        <g transform="matrix(0.486611,0,0,0.486611,3508.81,2383.05)">
                            <circle cx="7557.5" cy="2057.5" r="37.5" style="fill:rgb(25,191,194);"/>
                        </g>
                        <g transform="matrix(0.486611,0,0,0.486611,3460.15,2383.05)">
                            <circle cx="7557.5" cy="2057.5" r="37.5" style="fill:rgb(25,191,194);"/>
                        </g>
                        <g transform="matrix(0.486611,0,0,0.486611,3703.45,2577.7)">
                            <circle cx="7557.5" cy="2057.5" r="37.5" style="fill:rgb(25,191,194);"/>
                        </g>
                        <g transform="matrix(0.486611,0,0,0.486611,3703.45,2334.39)">
                            <circle cx="7557.5" cy="2057.5" r="37.5" style="fill:rgb(25,191,194);"/>
                        </g>
                        <g transform="matrix(0.486611,0,0,0.486611,3508.81,2334.39)">
                            <circle cx="7557.5" cy="2057.5" r="37.5" style="fill:rgb(25,191,194);"/>
                        </g>
                        <g transform="matrix(0.486611,0,0,0.486611,3460.15,2334.39)">
                            <circle cx="7557.5" cy="2057.5" r="37.5" style="fill:rgb(25,191,194);"/>
                        </g>
                        <g transform="matrix(0.486611,0,0,0.486611,3703.45,2529.04)">
                            <circle cx="7557.5" cy="2057.5" r="37.5" style="fill:rgb(25,191,194);"/>
                        </g>
                        <g transform="matrix(0.486611,0,0,0.486611,3703.45,2285.73)">
                            <circle cx="7557.5" cy="2057.5" r="37.5" style="fill:rgb(25,191,194);"/>
                        </g>
                        <g transform="matrix(0.486611,0,0,0.486611,3508.81,2529.04)">
                            <circle cx="7557.5" cy="2057.5" r="37.5" style="fill:rgb(25,191,194);"/>
                        </g>
                        <g transform="matrix(0.486611,0,0,0.486611,3460.15,2529.04)">
                            <circle cx="7557.5" cy="2057.5" r="37.5" style="fill:rgb(25,191,194);"/>
                        </g>
                        <g transform="matrix(0.486611,0,0,0.486611,3508.81,2285.73)">
                            <circle cx="7557.5" cy="2057.5" r="37.5" style="fill:rgb(25,191,194);"/>
                        </g>
                        <g transform="matrix(0.486611,0,0,0.486611,3460.15,2285.73)">
                            <circle cx="7557.5" cy="2057.5" r="37.5" style="fill:rgb(25,191,194);"/>
                        </g>
                        <g transform="matrix(0.486611,0,0,0.486611,3703.45,2480.37)">
                            <circle cx="7557.5" cy="2057.5" r="37.5" style="fill:rgb(25,191,194);"/>
                        </g>
                        <g transform="matrix(0.486611,0,0,0.486611,3703.45,2237.07)">
                            <circle cx="7557.5" cy="2057.5" r="37.5" style="fill:rgb(25,191,194);"/>
                        </g>
                        <g transform="matrix(0.486611,0,0,0.486611,3508.81,2480.37)">
                            <circle cx="7557.5" cy="2057.5" r="37.5" style="fill:rgb(25,191,194);"/>
                        </g>
                        <g transform="matrix(0.486611,0,0,0.486611,3460.15,2480.37)">
                            <circle cx="7557.5" cy="2057.5" r="37.5" style="fill:rgb(25,191,194);"/>
                        </g>
                        <g transform="matrix(0.486611,0,0,0.486611,3508.81,2237.07)">
                            <circle cx="7557.5" cy="2057.5" r="37.5" style="fill:rgb(25,191,194);"/>
                        </g>
                        <g transform="matrix(0.486611,0,0,0.486611,3460.15,2237.07)">
                            <circle cx="7557.5" cy="2057.5" r="37.5" style="fill:rgb(25,191,194);"/>
                        </g>
                    </g>
                </g>
            </g>
        </g>
    </g>
</svg>
