<?xml version="1.0" encoding="UTF-8" standalone="no"?><!DOCTYPE svg PUBLIC "-//W3C//DTD SVG 1.1//EN" "http://www.w3.org/Graphics/SVG/1.1/DTD/svg11.dtd"><svg width="100%" height="100%" viewBox="0 0 30 46" version="1.1" xmlns="http://www.w3.org/2000/svg" xmlns:xlink="http://www.w3.org/1999/xlink" xml:space="preserve" xmlns:serif="http://www.serif.com/" style="fill-rule:evenodd;clip-rule:evenodd;stroke-linejoin:round;stroke-miterlimit:1.5;"><path d="M27.86,14.678c0,-7.278 -5.9,-13.178 -13.178,-13.178c-0.001,0 -0.003,0 -0.004,0c-7.278,0 -13.178,5.9 -13.178,13.178c0,5.038 0,10.782 0,15.82c0,7.278 5.9,13.178 13.178,13.178c0.001,0 0.003,0 0.004,0c7.278,0 13.178,-5.9 13.178,-13.178c0,-5.038 0,-10.782 0,-15.82Z" style="fill:none;stroke:#fff;stroke-width:3px;"/><path d="M16.783,9.941c0,-0.558 -0.222,-1.093 -0.616,-1.487c-0.394,-0.394 -0.929,-0.615 -1.486,-0.615c-0.001,0 -0.001,0 -0.002,0c-0.557,0 -1.092,0.221 -1.486,0.615c-0.394,0.394 -0.616,0.929 -0.616,1.487c0,1.284 0,2.922 0,4.206c0,0.558 0.222,1.093 0.616,1.487c0.394,0.394 0.929,0.615 1.486,0.615c0.001,0 0.001,0 0.002,0c0.557,0 1.092,-0.221 1.486,-0.615c0.394,-0.394 0.616,-0.929 0.616,-1.487c0,-1.284 0,-2.922 0,-4.206Z" style="fill:#fff;"/></svg>