<?xml version="1.0" encoding="UTF-8" standalone="no"?><!DOCTYPE svg PUBLIC "-//W3C//DTD SVG 1.1//EN" "http://www.w3.org/Graphics/SVG/1.1/DTD/svg11.dtd"><svg width="100%" height="100%" viewBox="0 0 1905 1881" version="1.1" xmlns="http://www.w3.org/2000/svg" xmlns:xlink="http://www.w3.org/1999/xlink" xml:space="preserve" xmlns:serif="http://www.serif.com/" style="fill-rule:evenodd;clip-rule:evenodd;stroke-linejoin:round;stroke-miterlimit:2;"><g opacity="0.1"><path d="M1876.08,919.74l-1104.33,926.643l28.282,33.706l1104.33,-926.643l-28.283,-33.706Z" style="fill:#fff;"/><path d="M1816.72,848.991l-1104.33,926.642l28.283,33.706l1104.33,-926.642l-28.283,-33.706Z" style="fill:#fff;"/><path d="M1757.35,778.242l-1104.33,926.642l28.283,33.706l1104.33,-926.642l-28.282,-33.706Z" style="fill:#fff;"/><path d="M1697.99,707.492l-1104.33,926.643l28.282,33.706l1104.33,-926.643l-28.283,-33.706Z" style="fill:#fff;"/><path d="M1638.62,636.743l-1104.33,926.643l28.283,33.706l1104.33,-926.643l-28.283,-33.706Z" style="fill:#fff;"/><path d="M1579.26,565.994l-1104.33,926.642l28.283,33.706l1104.33,-926.642l-28.282,-33.706Z" style="fill:#fff;"/><path d="M1519.89,495.245l-1104.33,926.642l28.282,33.706l1104.33,-926.642l-28.283,-33.706Z" style="fill:#fff;"/><path d="M1460.52,424.495l-1104.33,926.643l28.283,33.706l1104.33,-926.643l-28.283,-33.706Z" style="fill:#fff;"/><path d="M1401.16,353.746l-1104.33,926.643l28.283,33.706l1104.33,-926.643l-28.282,-33.706Z" style="fill:#fff;"/><path d="M1341.79,282.997l-1104.33,926.642l28.282,33.706l1104.33,-926.642l-28.283,-33.706Z" style="fill:#fff;"/><path d="M1282.43,212.248l-1104.33,926.642l28.283,33.706l1104.33,-926.642l-28.283,-33.706Z" style="fill:#fff;"/><path d="M1223.06,141.498l-1104.33,926.643l28.283,33.706l1104.33,-926.643l-28.282,-33.706Z" style="fill:#fff;"/><path d="M1163.69,70.749l-1104.33,926.643l28.282,33.706l1104.33,-926.643l-28.283,-33.706Z" style="fill:#fff;"/><path d="M1104.33,0l-1104.33,926.642l28.283,33.706l1104.33,-926.642l-28.283,-33.706Z" style="fill:#fff;"/></g></svg>